<svg xmlns="http://www.w3.org/2000/svg" xmlns:xlink="http://www.w3.org/1999/xlink" width="170" zoomAndPan="magnify" viewBox="0 0 127.5 37.5" height="50" preserveAspectRatio="xMidYMid meet" version="1.0"><defs><g/><clipPath id="f1c17b767e"><path d="M 2.4375 4.292969 L 124.558594 4.292969 L 124.558594 32.417969 L 2.4375 32.417969 Z M 2.4375 4.292969 " clip-rule="nonzero"/></clipPath><clipPath id="31e09d3791"><path d="M 110.152344 32.414062 L 16.835938 32.414062 C 8.988281 32.414062 2.628906 26.117188 2.628906 18.355469 C 2.628906 10.585938 8.988281 4.292969 16.835938 4.292969 L 110.152344 4.292969 C 118 4.292969 124.359375 10.585938 124.359375 18.355469 C 124.355469 26.117188 117.996094 32.414062 110.152344 32.414062 Z M 110.152344 32.414062 " clip-rule="nonzero"/></clipPath><linearGradient x1="-0.000000115124" gradientTransform="matrix(0.257583, 0, 0, 0.254986, 2.63012, 4.291306)" y1="55.146999" x2="472.579967" gradientUnits="userSpaceOnUse" y2="55.146999" id="a110d8f416"><stop stop-opacity="1" stop-color="rgb(0%, 65.098572%, 31.759644%)" offset="0"/><stop stop-opacity="1" stop-color="rgb(0.215149%, 65.1474%, 31.732178%)" offset="0.00390625"/><stop stop-opacity="1" stop-color="rgb(0.431824%, 65.197754%, 31.704712%)" offset="0.0078125"/><stop stop-opacity="1" stop-color="rgb(0.646973%, 65.246582%, 31.677246%)" offset="0.0117188"/><stop stop-opacity="1" stop-color="rgb(0.863647%, 65.29541%, 31.64978%)" offset="0.015625"/><stop stop-opacity="1" stop-color="rgb(1.078796%, 65.344238%, 31.620789%)" offset="0.0195312"/><stop stop-opacity="1" stop-color="rgb(1.295471%, 65.393066%, 31.593323%)" offset="0.0234375"/><stop stop-opacity="1" stop-color="rgb(1.51062%, 65.441895%, 31.565857%)" offset="0.0273438"/><stop stop-opacity="1" stop-color="rgb(1.727295%, 65.490723%, 31.538391%)" offset="0.03125"/><stop stop-opacity="1" stop-color="rgb(1.942444%, 65.539551%, 31.510925%)" offset="0.0351562"/><stop stop-opacity="1" stop-color="rgb(2.159119%, 65.589905%, 31.483459%)" offset="0.0390625"/><stop stop-opacity="1" stop-color="rgb(2.374268%, 65.638733%, 31.455994%)" offset="0.0429687"/><stop stop-opacity="1" stop-color="rgb(2.590942%, 65.687561%, 31.428528%)" offset="0.046875"/><stop stop-opacity="1" stop-color="rgb(2.806091%, 65.736389%, 31.401062%)" offset="0.0507812"/><stop stop-opacity="1" stop-color="rgb(3.022766%, 65.785217%, 31.373596%)" offset="0.0546875"/><stop stop-opacity="1" stop-color="rgb(3.237915%, 65.834045%, 31.34613%)" offset="0.0585937"/><stop stop-opacity="1" stop-color="rgb(3.45459%, 65.882874%, 31.318665%)" offset="0.0625"/><stop stop-opacity="1" stop-color="rgb(3.669739%, 65.931702%, 31.291199%)" offset="0.0664062"/><stop stop-opacity="1" stop-color="rgb(3.886414%, 65.982056%, 31.263733%)" offset="0.0703125"/><stop stop-opacity="1" stop-color="rgb(4.101562%, 66.030884%, 31.236267%)" offset="0.0742187"/><stop stop-opacity="1" stop-color="rgb(4.318237%, 66.079712%, 31.208801%)" offset="0.078125"/><stop stop-opacity="1" stop-color="rgb(4.534912%, 66.12854%, 31.181335%)" offset="0.0820312"/><stop stop-opacity="1" stop-color="rgb(4.751587%, 66.177368%, 31.15387%)" offset="0.0859375"/><stop stop-opacity="1" stop-color="rgb(4.966736%, 66.226196%, 31.126404%)" offset="0.0898437"/><stop stop-opacity="1" stop-color="rgb(5.183411%, 66.27655%, 31.098938%)" offset="0.09375"/><stop stop-opacity="1" stop-color="rgb(5.39856%, 66.325378%, 31.069946%)" offset="0.0976562"/><stop stop-opacity="1" stop-color="rgb(5.615234%, 66.374207%, 31.04248%)" offset="0.101562"/><stop stop-opacity="1" stop-color="rgb(5.830383%, 66.423035%, 31.015015%)" offset="0.105469"/><stop stop-opacity="1" stop-color="rgb(6.047058%, 66.471863%, 30.987549%)" offset="0.109375"/><stop stop-opacity="1" stop-color="rgb(6.262207%, 66.520691%, 30.960083%)" offset="0.113281"/><stop stop-opacity="1" stop-color="rgb(6.478882%, 66.569519%, 30.932617%)" offset="0.117187"/><stop stop-opacity="1" stop-color="rgb(6.694031%, 66.618347%, 30.905151%)" offset="0.121094"/><stop stop-opacity="1" stop-color="rgb(6.910706%, 66.668701%, 30.877686%)" offset="0.125"/><stop stop-opacity="1" stop-color="rgb(7.125854%, 66.717529%, 30.85022%)" offset="0.128906"/><stop stop-opacity="1" stop-color="rgb(7.342529%, 66.766357%, 30.822754%)" offset="0.132812"/><stop stop-opacity="1" stop-color="rgb(7.557678%, 66.815186%, 30.795288%)" offset="0.136719"/><stop stop-opacity="1" stop-color="rgb(7.774353%, 66.864014%, 30.767822%)" offset="0.140625"/><stop stop-opacity="1" stop-color="rgb(7.989502%, 66.912842%, 30.740356%)" offset="0.144531"/><stop stop-opacity="1" stop-color="rgb(8.206177%, 66.96167%, 30.712891%)" offset="0.148437"/><stop stop-opacity="1" stop-color="rgb(8.421326%, 67.010498%, 30.685425%)" offset="0.152344"/><stop stop-opacity="1" stop-color="rgb(8.638%, 67.060852%, 30.657959%)" offset="0.15625"/><stop stop-opacity="1" stop-color="rgb(8.853149%, 67.10968%, 30.630493%)" offset="0.160156"/><stop stop-opacity="1" stop-color="rgb(9.069824%, 67.158508%, 30.603027%)" offset="0.164062"/><stop stop-opacity="1" stop-color="rgb(9.286499%, 67.207336%, 30.575562%)" offset="0.167969"/><stop stop-opacity="1" stop-color="rgb(9.503174%, 67.256165%, 30.548096%)" offset="0.171875"/><stop stop-opacity="1" stop-color="rgb(9.718323%, 67.304993%, 30.52063%)" offset="0.175781"/><stop stop-opacity="1" stop-color="rgb(9.934998%, 67.353821%, 30.493164%)" offset="0.179688"/><stop stop-opacity="1" stop-color="rgb(10.150146%, 67.402649%, 30.464172%)" offset="0.183594"/><stop stop-opacity="1" stop-color="rgb(10.366821%, 67.453003%, 30.436707%)" offset="0.1875"/><stop stop-opacity="1" stop-color="rgb(10.58197%, 67.501831%, 30.409241%)" offset="0.191406"/><stop stop-opacity="1" stop-color="rgb(10.798645%, 67.550659%, 30.381775%)" offset="0.195312"/><stop stop-opacity="1" stop-color="rgb(11.013794%, 67.599487%, 30.354309%)" offset="0.199219"/><stop stop-opacity="1" stop-color="rgb(11.230469%, 67.648315%, 30.326843%)" offset="0.203125"/><stop stop-opacity="1" stop-color="rgb(11.445618%, 67.697144%, 30.299377%)" offset="0.207031"/><stop stop-opacity="1" stop-color="rgb(11.662292%, 67.745972%, 30.271912%)" offset="0.210938"/><stop stop-opacity="1" stop-color="rgb(11.877441%, 67.7948%, 30.244446%)" offset="0.214844"/><stop stop-opacity="1" stop-color="rgb(12.094116%, 67.845154%, 30.21698%)" offset="0.21875"/><stop stop-opacity="1" stop-color="rgb(12.309265%, 67.893982%, 30.189514%)" offset="0.222656"/><stop stop-opacity="1" stop-color="rgb(12.52594%, 67.94281%, 30.162048%)" offset="0.226562"/><stop stop-opacity="1" stop-color="rgb(12.741089%, 67.991638%, 30.134583%)" offset="0.230469"/><stop stop-opacity="1" stop-color="rgb(12.957764%, 68.040466%, 30.107117%)" offset="0.234375"/><stop stop-opacity="1" stop-color="rgb(13.172913%, 68.089294%, 30.079651%)" offset="0.238281"/><stop stop-opacity="1" stop-color="rgb(13.389587%, 68.138123%, 30.052185%)" offset="0.242187"/><stop stop-opacity="1" stop-color="rgb(13.604736%, 68.186951%, 30.024719%)" offset="0.246094"/><stop stop-opacity="1" stop-color="rgb(13.821411%, 68.237305%, 29.997253%)" offset="0.25"/><stop stop-opacity="1" stop-color="rgb(14.038086%, 68.286133%, 29.969788%)" offset="0.253906"/><stop stop-opacity="1" stop-color="rgb(14.254761%, 68.334961%, 29.942322%)" offset="0.257812"/><stop stop-opacity="1" stop-color="rgb(14.46991%, 68.383789%, 29.91333%)" offset="0.261719"/><stop stop-opacity="1" stop-color="rgb(14.686584%, 68.432617%, 29.885864%)" offset="0.265625"/><stop stop-opacity="1" stop-color="rgb(14.901733%, 68.481445%, 29.858398%)" offset="0.269531"/><stop stop-opacity="1" stop-color="rgb(15.118408%, 68.530273%, 29.830933%)" offset="0.273437"/><stop stop-opacity="1" stop-color="rgb(15.333557%, 68.579102%, 29.803467%)" offset="0.277344"/><stop stop-opacity="1" stop-color="rgb(15.550232%, 68.629456%, 29.776001%)" offset="0.28125"/><stop stop-opacity="1" stop-color="rgb(15.765381%, 68.678284%, 29.748535%)" offset="0.285156"/><stop stop-opacity="1" stop-color="rgb(15.982056%, 68.727112%, 29.721069%)" offset="0.289062"/><stop stop-opacity="1" stop-color="rgb(16.197205%, 68.77594%, 29.693604%)" offset="0.292969"/><stop stop-opacity="1" stop-color="rgb(16.413879%, 68.824768%, 29.666138%)" offset="0.296875"/><stop stop-opacity="1" stop-color="rgb(16.629028%, 68.873596%, 29.638672%)" offset="0.300781"/><stop stop-opacity="1" stop-color="rgb(16.845703%, 68.922424%, 29.611206%)" offset="0.304688"/><stop stop-opacity="1" stop-color="rgb(17.060852%, 68.971252%, 29.58374%)" offset="0.308594"/><stop stop-opacity="1" stop-color="rgb(17.277527%, 69.021606%, 29.556274%)" offset="0.3125"/><stop stop-opacity="1" stop-color="rgb(17.492676%, 69.070435%, 29.528809%)" offset="0.316406"/><stop stop-opacity="1" stop-color="rgb(17.709351%, 69.119263%, 29.501343%)" offset="0.320312"/><stop stop-opacity="1" stop-color="rgb(17.9245%, 69.168091%, 29.473877%)" offset="0.324219"/><stop stop-opacity="1" stop-color="rgb(18.141174%, 69.216919%, 29.446411%)" offset="0.328125"/><stop stop-opacity="1" stop-color="rgb(18.356323%, 69.265747%, 29.418945%)" offset="0.332031"/><stop stop-opacity="1" stop-color="rgb(18.572998%, 69.316101%, 29.391479%)" offset="0.335937"/><stop stop-opacity="1" stop-color="rgb(18.789673%, 69.364929%, 29.362488%)" offset="0.339844"/><stop stop-opacity="1" stop-color="rgb(19.006348%, 69.413757%, 29.335022%)" offset="0.34375"/><stop stop-opacity="1" stop-color="rgb(19.221497%, 69.462585%, 29.307556%)" offset="0.347656"/><stop stop-opacity="1" stop-color="rgb(19.438171%, 69.511414%, 29.28009%)" offset="0.351562"/><stop stop-opacity="1" stop-color="rgb(19.65332%, 69.560242%, 29.252625%)" offset="0.355469"/><stop stop-opacity="1" stop-color="rgb(19.869995%, 69.60907%, 29.225159%)" offset="0.359375"/><stop stop-opacity="1" stop-color="rgb(20.085144%, 69.657898%, 29.197693%)" offset="0.363281"/><stop stop-opacity="1" stop-color="rgb(20.301819%, 69.708252%, 29.170227%)" offset="0.367187"/><stop stop-opacity="1" stop-color="rgb(20.516968%, 69.75708%, 29.142761%)" offset="0.371094"/><stop stop-opacity="1" stop-color="rgb(20.733643%, 69.805908%, 29.115295%)" offset="0.375"/><stop stop-opacity="1" stop-color="rgb(20.948792%, 69.854736%, 29.08783%)" offset="0.378906"/><stop stop-opacity="1" stop-color="rgb(21.165466%, 69.903564%, 29.060364%)" offset="0.382812"/><stop stop-opacity="1" stop-color="rgb(21.380615%, 69.952393%, 29.032898%)" offset="0.386719"/><stop stop-opacity="1" stop-color="rgb(21.59729%, 70.001221%, 29.005432%)" offset="0.390625"/><stop stop-opacity="1" stop-color="rgb(21.812439%, 70.050049%, 28.977966%)" offset="0.394531"/><stop stop-opacity="1" stop-color="rgb(22.029114%, 70.100403%, 28.9505%)" offset="0.398437"/><stop stop-opacity="1" stop-color="rgb(22.244263%, 70.149231%, 28.923035%)" offset="0.402344"/><stop stop-opacity="1" stop-color="rgb(22.460938%, 70.198059%, 28.895569%)" offset="0.40625"/><stop stop-opacity="1" stop-color="rgb(22.676086%, 70.246887%, 28.868103%)" offset="0.410156"/><stop stop-opacity="1" stop-color="rgb(22.892761%, 70.295715%, 28.840637%)" offset="0.414062"/><stop stop-opacity="1" stop-color="rgb(23.10791%, 70.344543%, 28.813171%)" offset="0.417969"/><stop stop-opacity="1" stop-color="rgb(23.324585%, 70.393372%, 28.785706%)" offset="0.421875"/><stop stop-opacity="1" stop-color="rgb(23.54126%, 70.4422%, 28.756714%)" offset="0.425781"/><stop stop-opacity="1" stop-color="rgb(23.757935%, 70.492554%, 28.729248%)" offset="0.429687"/><stop stop-opacity="1" stop-color="rgb(23.973083%, 70.541382%, 28.701782%)" offset="0.433594"/><stop stop-opacity="1" stop-color="rgb(24.189758%, 70.59021%, 28.674316%)" offset="0.4375"/><stop stop-opacity="1" stop-color="rgb(24.404907%, 70.639038%, 28.646851%)" offset="0.441406"/><stop stop-opacity="1" stop-color="rgb(24.621582%, 70.687866%, 28.619385%)" offset="0.445312"/><stop stop-opacity="1" stop-color="rgb(24.836731%, 70.736694%, 28.591919%)" offset="0.449219"/><stop stop-opacity="1" stop-color="rgb(25.053406%, 70.785522%, 28.564453%)" offset="0.453125"/><stop stop-opacity="1" stop-color="rgb(25.268555%, 70.834351%, 28.536987%)" offset="0.457031"/><stop stop-opacity="1" stop-color="rgb(25.485229%, 70.884705%, 28.509521%)" offset="0.460937"/><stop stop-opacity="1" stop-color="rgb(25.700378%, 70.933533%, 28.482056%)" offset="0.464844"/><stop stop-opacity="1" stop-color="rgb(25.917053%, 70.982361%, 28.45459%)" offset="0.46875"/><stop stop-opacity="1" stop-color="rgb(26.132202%, 71.031189%, 28.427124%)" offset="0.472656"/><stop stop-opacity="1" stop-color="rgb(26.348877%, 71.080017%, 28.399658%)" offset="0.476562"/><stop stop-opacity="1" stop-color="rgb(26.564026%, 71.128845%, 28.372192%)" offset="0.480469"/><stop stop-opacity="1" stop-color="rgb(26.780701%, 71.177673%, 28.344727%)" offset="0.484375"/><stop stop-opacity="1" stop-color="rgb(26.99585%, 71.226501%, 28.317261%)" offset="0.488281"/><stop stop-opacity="1" stop-color="rgb(27.212524%, 71.276855%, 28.289795%)" offset="0.492188"/><stop stop-opacity="1" stop-color="rgb(27.427673%, 71.325684%, 28.262329%)" offset="0.496094"/><stop stop-opacity="1" stop-color="rgb(27.644348%, 71.374512%, 28.234863%)" offset="0.5"/><stop stop-opacity="1" stop-color="rgb(27.859497%, 71.42334%, 28.205872%)" offset="0.503906"/><stop stop-opacity="1" stop-color="rgb(28.076172%, 71.472168%, 28.178406%)" offset="0.507813"/><stop stop-opacity="1" stop-color="rgb(28.292847%, 71.520996%, 28.15094%)" offset="0.511719"/><stop stop-opacity="1" stop-color="rgb(28.509521%, 71.569824%, 28.123474%)" offset="0.515625"/><stop stop-opacity="1" stop-color="rgb(28.72467%, 71.618652%, 28.096008%)" offset="0.519531"/><stop stop-opacity="1" stop-color="rgb(28.941345%, 71.669006%, 28.068542%)" offset="0.523438"/><stop stop-opacity="1" stop-color="rgb(29.156494%, 71.717834%, 28.041077%)" offset="0.527344"/><stop stop-opacity="1" stop-color="rgb(29.373169%, 71.766663%, 28.013611%)" offset="0.53125"/><stop stop-opacity="1" stop-color="rgb(29.588318%, 71.815491%, 27.986145%)" offset="0.535156"/><stop stop-opacity="1" stop-color="rgb(29.804993%, 71.864319%, 27.958679%)" offset="0.539062"/><stop stop-opacity="1" stop-color="rgb(30.020142%, 71.913147%, 27.931213%)" offset="0.542969"/><stop stop-opacity="1" stop-color="rgb(30.236816%, 71.961975%, 27.903748%)" offset="0.546875"/><stop stop-opacity="1" stop-color="rgb(30.451965%, 72.010803%, 27.876282%)" offset="0.550781"/><stop stop-opacity="1" stop-color="rgb(30.66864%, 72.061157%, 27.848816%)" offset="0.554688"/><stop stop-opacity="1" stop-color="rgb(30.883789%, 72.109985%, 27.82135%)" offset="0.558594"/><stop stop-opacity="1" stop-color="rgb(31.100464%, 72.158813%, 27.793884%)" offset="0.5625"/><stop stop-opacity="1" stop-color="rgb(31.315613%, 72.207642%, 27.766418%)" offset="0.566406"/><stop stop-opacity="1" stop-color="rgb(31.532288%, 72.25647%, 27.738953%)" offset="0.570312"/><stop stop-opacity="1" stop-color="rgb(31.747437%, 72.305298%, 27.711487%)" offset="0.574219"/><stop stop-opacity="1" stop-color="rgb(31.964111%, 72.355652%, 27.684021%)" offset="0.578125"/><stop stop-opacity="1" stop-color="rgb(32.17926%, 72.40448%, 27.655029%)" offset="0.582031"/><stop stop-opacity="1" stop-color="rgb(32.395935%, 72.453308%, 27.627563%)" offset="0.585938"/><stop stop-opacity="1" stop-color="rgb(32.611084%, 72.502136%, 27.600098%)" offset="0.589844"/><stop stop-opacity="1" stop-color="rgb(32.827759%, 72.550964%, 27.572632%)" offset="0.59375"/><stop stop-opacity="1" stop-color="rgb(33.044434%, 72.599792%, 27.545166%)" offset="0.597656"/><stop stop-opacity="1" stop-color="rgb(33.261108%, 72.648621%, 27.5177%)" offset="0.601563"/><stop stop-opacity="1" stop-color="rgb(33.476257%, 72.697449%, 27.490234%)" offset="0.605469"/><stop stop-opacity="1" stop-color="rgb(33.692932%, 72.747803%, 27.462769%)" offset="0.609375"/><stop stop-opacity="1" stop-color="rgb(33.908081%, 72.796631%, 27.435303%)" offset="0.613281"/><stop stop-opacity="1" stop-color="rgb(34.124756%, 72.845459%, 27.407837%)" offset="0.617188"/><stop stop-opacity="1" stop-color="rgb(34.339905%, 72.894287%, 27.380371%)" offset="0.621094"/><stop stop-opacity="1" stop-color="rgb(34.55658%, 72.943115%, 27.352905%)" offset="0.625"/><stop stop-opacity="1" stop-color="rgb(34.771729%, 72.991943%, 27.325439%)" offset="0.628906"/><stop stop-opacity="1" stop-color="rgb(34.988403%, 73.040771%, 27.297974%)" offset="0.632812"/><stop stop-opacity="1" stop-color="rgb(35.203552%, 73.0896%, 27.270508%)" offset="0.636719"/><stop stop-opacity="1" stop-color="rgb(35.420227%, 73.139954%, 27.243042%)" offset="0.640625"/><stop stop-opacity="1" stop-color="rgb(35.635376%, 73.188782%, 27.215576%)" offset="0.644531"/><stop stop-opacity="1" stop-color="rgb(35.852051%, 73.23761%, 27.18811%)" offset="0.648437"/><stop stop-opacity="1" stop-color="rgb(36.0672%, 73.286438%, 27.160645%)" offset="0.652344"/><stop stop-opacity="1" stop-color="rgb(36.283875%, 73.335266%, 27.133179%)" offset="0.65625"/><stop stop-opacity="1" stop-color="rgb(36.499023%, 73.384094%, 27.104187%)" offset="0.660156"/><stop stop-opacity="1" stop-color="rgb(36.715698%, 73.432922%, 27.076721%)" offset="0.664063"/><stop stop-opacity="1" stop-color="rgb(36.930847%, 73.48175%, 27.049255%)" offset="0.667969"/><stop stop-opacity="1" stop-color="rgb(37.147522%, 73.532104%, 27.02179%)" offset="0.671875"/><stop stop-opacity="1" stop-color="rgb(37.364197%, 73.580933%, 26.994324%)" offset="0.675781"/><stop stop-opacity="1" stop-color="rgb(37.580872%, 73.629761%, 26.966858%)" offset="0.679688"/><stop stop-opacity="1" stop-color="rgb(37.796021%, 73.678589%, 26.939392%)" offset="0.683594"/><stop stop-opacity="1" stop-color="rgb(38.012695%, 73.727417%, 26.911926%)" offset="0.6875"/><stop stop-opacity="1" stop-color="rgb(38.227844%, 73.776245%, 26.88446%)" offset="0.691406"/><stop stop-opacity="1" stop-color="rgb(38.444519%, 73.825073%, 26.856995%)" offset="0.695312"/><stop stop-opacity="1" stop-color="rgb(38.659668%, 73.873901%, 26.829529%)" offset="0.699219"/><stop stop-opacity="1" stop-color="rgb(38.876343%, 73.924255%, 26.802063%)" offset="0.703125"/><stop stop-opacity="1" stop-color="rgb(39.091492%, 73.973083%, 26.774597%)" offset="0.707031"/><stop stop-opacity="1" stop-color="rgb(39.308167%, 74.021912%, 26.747131%)" offset="0.710937"/><stop stop-opacity="1" stop-color="rgb(39.523315%, 74.07074%, 26.719666%)" offset="0.714844"/><stop stop-opacity="1" stop-color="rgb(39.73999%, 74.119568%, 26.6922%)" offset="0.71875"/><stop stop-opacity="1" stop-color="rgb(39.955139%, 74.168396%, 26.664734%)" offset="0.722656"/><stop stop-opacity="1" stop-color="rgb(40.171814%, 74.217224%, 26.637268%)" offset="0.726562"/><stop stop-opacity="1" stop-color="rgb(40.386963%, 74.266052%, 26.609802%)" offset="0.730469"/><stop stop-opacity="1" stop-color="rgb(40.603638%, 74.316406%, 26.582336%)" offset="0.734375"/><stop stop-opacity="1" stop-color="rgb(40.818787%, 74.365234%, 26.554871%)" offset="0.738281"/><stop stop-opacity="1" stop-color="rgb(41.035461%, 74.414062%, 26.527405%)" offset="0.742188"/><stop stop-opacity="1" stop-color="rgb(41.25061%, 74.462891%, 26.498413%)" offset="0.746094"/><stop stop-opacity="1" stop-color="rgb(41.467285%, 74.511719%, 26.470947%)" offset="0.75"/><stop stop-opacity="1" stop-color="rgb(41.682434%, 74.560547%, 26.443481%)" offset="0.753906"/><stop stop-opacity="1" stop-color="rgb(41.899109%, 74.609375%, 26.416016%)" offset="0.757812"/><stop stop-opacity="1" stop-color="rgb(42.115784%, 74.658203%, 26.38855%)" offset="0.761719"/><stop stop-opacity="1" stop-color="rgb(42.332458%, 74.708557%, 26.361084%)" offset="0.765625"/><stop stop-opacity="1" stop-color="rgb(42.547607%, 74.757385%, 26.333618%)" offset="0.769531"/><stop stop-opacity="1" stop-color="rgb(42.764282%, 74.806213%, 26.306152%)" offset="0.773437"/><stop stop-opacity="1" stop-color="rgb(42.979431%, 74.855042%, 26.278687%)" offset="0.777344"/><stop stop-opacity="1" stop-color="rgb(43.196106%, 74.90387%, 26.251221%)" offset="0.78125"/><stop stop-opacity="1" stop-color="rgb(43.411255%, 74.952698%, 26.223755%)" offset="0.785156"/><stop stop-opacity="1" stop-color="rgb(43.62793%, 75.001526%, 26.196289%)" offset="0.789062"/><stop stop-opacity="1" stop-color="rgb(43.843079%, 75.050354%, 26.168823%)" offset="0.792969"/><stop stop-opacity="1" stop-color="rgb(44.059753%, 75.100708%, 26.141357%)" offset="0.796875"/><stop stop-opacity="1" stop-color="rgb(44.274902%, 75.149536%, 26.113892%)" offset="0.800781"/><stop stop-opacity="1" stop-color="rgb(44.491577%, 75.198364%, 26.086426%)" offset="0.804687"/><stop stop-opacity="1" stop-color="rgb(44.706726%, 75.247192%, 26.05896%)" offset="0.808594"/><stop stop-opacity="1" stop-color="rgb(44.923401%, 75.296021%, 26.031494%)" offset="0.8125"/><stop stop-opacity="1" stop-color="rgb(45.13855%, 75.344849%, 26.004028%)" offset="0.816406"/><stop stop-opacity="1" stop-color="rgb(45.355225%, 75.393677%, 25.976562%)" offset="0.820312"/><stop stop-opacity="1" stop-color="rgb(45.570374%, 75.442505%, 25.947571%)" offset="0.824219"/><stop stop-opacity="1" stop-color="rgb(45.787048%, 75.492859%, 25.920105%)" offset="0.828125"/><stop stop-opacity="1" stop-color="rgb(46.002197%, 75.541687%, 25.892639%)" offset="0.832031"/><stop stop-opacity="1" stop-color="rgb(46.218872%, 75.590515%, 25.865173%)" offset="0.835938"/><stop stop-opacity="1" stop-color="rgb(46.434021%, 75.639343%, 25.837708%)" offset="0.839844"/><stop stop-opacity="1" stop-color="rgb(46.650696%, 75.688171%, 25.810242%)" offset="0.84375"/><stop stop-opacity="1" stop-color="rgb(46.867371%, 75.737%, 25.782776%)" offset="0.847656"/><stop stop-opacity="1" stop-color="rgb(47.084045%, 75.787354%, 25.75531%)" offset="0.851562"/><stop stop-opacity="1" stop-color="rgb(47.299194%, 75.836182%, 25.727844%)" offset="0.855469"/><stop stop-opacity="1" stop-color="rgb(47.515869%, 75.88501%, 25.700378%)" offset="0.859375"/><stop stop-opacity="1" stop-color="rgb(47.731018%, 75.933838%, 25.672913%)" offset="0.863281"/><stop stop-opacity="1" stop-color="rgb(47.947693%, 75.982666%, 25.645447%)" offset="0.867187"/><stop stop-opacity="1" stop-color="rgb(48.162842%, 76.031494%, 25.617981%)" offset="0.871094"/><stop stop-opacity="1" stop-color="rgb(48.379517%, 76.080322%, 25.590515%)" offset="0.875"/><stop stop-opacity="1" stop-color="rgb(48.594666%, 76.12915%, 25.563049%)" offset="0.878906"/><stop stop-opacity="1" stop-color="rgb(48.81134%, 76.179504%, 25.535583%)" offset="0.882812"/><stop stop-opacity="1" stop-color="rgb(49.026489%, 76.228333%, 25.508118%)" offset="0.886719"/><stop stop-opacity="1" stop-color="rgb(49.243164%, 76.277161%, 25.480652%)" offset="0.890625"/><stop stop-opacity="1" stop-color="rgb(49.458313%, 76.325989%, 25.453186%)" offset="0.894531"/><stop stop-opacity="1" stop-color="rgb(49.674988%, 76.374817%, 25.42572%)" offset="0.898438"/><stop stop-opacity="1" stop-color="rgb(49.890137%, 76.423645%, 25.396729%)" offset="0.902344"/><stop stop-opacity="1" stop-color="rgb(50.106812%, 76.472473%, 25.369263%)" offset="0.90625"/><stop stop-opacity="1" stop-color="rgb(50.32196%, 76.521301%, 25.341797%)" offset="0.910156"/><stop stop-opacity="1" stop-color="rgb(50.538635%, 76.571655%, 25.314331%)" offset="0.914062"/><stop stop-opacity="1" stop-color="rgb(50.753784%, 76.620483%, 25.286865%)" offset="0.917969"/><stop stop-opacity="1" stop-color="rgb(50.970459%, 76.669312%, 25.259399%)" offset="0.921875"/><stop stop-opacity="1" stop-color="rgb(51.185608%, 76.71814%, 25.231934%)" offset="0.925781"/><stop stop-opacity="1" stop-color="rgb(51.402283%, 76.766968%, 25.204468%)" offset="0.929688"/><stop stop-opacity="1" stop-color="rgb(51.618958%, 76.815796%, 25.177002%)" offset="0.933594"/><stop stop-opacity="1" stop-color="rgb(51.835632%, 76.864624%, 25.149536%)" offset="0.9375"/><stop stop-opacity="1" stop-color="rgb(52.050781%, 76.913452%, 25.12207%)" offset="0.941406"/><stop stop-opacity="1" stop-color="rgb(52.267456%, 76.963806%, 25.094604%)" offset="0.945312"/><stop stop-opacity="1" stop-color="rgb(52.482605%, 77.012634%, 25.067139%)" offset="0.949219"/><stop stop-opacity="1" stop-color="rgb(52.69928%, 77.061462%, 25.039673%)" offset="0.953125"/><stop stop-opacity="1" stop-color="rgb(52.914429%, 77.110291%, 25.012207%)" offset="0.957031"/><stop stop-opacity="1" stop-color="rgb(53.131104%, 77.159119%, 24.984741%)" offset="0.960937"/><stop stop-opacity="1" stop-color="rgb(53.346252%, 77.207947%, 24.957275%)" offset="0.964844"/><stop stop-opacity="1" stop-color="rgb(53.562927%, 77.256775%, 24.92981%)" offset="0.96875"/><stop stop-opacity="1" stop-color="rgb(53.778076%, 77.305603%, 24.902344%)" offset="0.972656"/><stop stop-opacity="1" stop-color="rgb(53.994751%, 77.355957%, 24.874878%)" offset="0.976563"/><stop stop-opacity="1" stop-color="rgb(54.2099%, 77.404785%, 24.847412%)" offset="0.980469"/><stop stop-opacity="1" stop-color="rgb(54.426575%, 77.453613%, 24.819946%)" offset="0.984375"/><stop stop-opacity="1" stop-color="rgb(54.641724%, 77.502441%, 24.790955%)" offset="0.988281"/><stop stop-opacity="1" stop-color="rgb(54.858398%, 77.55127%, 24.763489%)" offset="0.992188"/><stop stop-opacity="1" stop-color="rgb(55.073547%, 77.600098%, 24.736023%)" offset="0.996094"/><stop stop-opacity="1" stop-color="rgb(55.288696%, 77.648926%, 24.708557%)" offset="1"/></linearGradient></defs><g clip-path="url(#f1c17b767e)"><g clip-path="url(#31e09d3791)"><path fill="url(#a110d8f416)" d="M 2.628906 4.292969 L 2.628906 32.414062 L 124.359375 32.414062 L 124.359375 4.292969 Z M 2.628906 4.292969 " fill-rule="nonzero"/></g></g><g fill="#ffffff" fill-opacity="1"><g transform="translate(28.663977, 23.282099)"><g><path d="M 5.859375 0.03125 C 5.566406 0.09375 5.304688 0.09375 5.078125 0.03125 C 4.835938 -0.0078125 4.675781 -0.117188 4.59375 -0.296875 C 4.5625 -0.390625 4.523438 -0.5625 4.484375 -0.8125 C 4.453125 -1.070312 4.414062 -1.359375 4.375 -1.671875 C 4.351562 -1.847656 4.332031 -2.023438 4.3125 -2.203125 C 4.289062 -2.367188 4.269531 -2.546875 4.25 -2.734375 C 4.21875 -2.929688 4.191406 -3.125 4.171875 -3.3125 C 4.128906 -3.5 4.09375 -3.675781 4.0625 -3.84375 L 3.328125 -3.734375 C 3.203125 -3.710938 3.082031 -3.695312 2.96875 -3.6875 C 2.84375 -3.664062 2.71875 -3.648438 2.59375 -3.640625 C 2.457031 -3.390625 2.378906 -3.144531 2.359375 -2.90625 C 2.347656 -2.664062 2.3125 -2.4375 2.25 -2.21875 C 2.195312 -2.039062 2.15625 -1.882812 2.125 -1.75 C 2.082031 -1.59375 2.050781 -1.460938 2.03125 -1.359375 C 1.96875 -1.117188 1.910156 -0.9375 1.859375 -0.8125 C 1.796875 -0.664062 1.722656 -0.570312 1.640625 -0.53125 C 1.535156 -0.46875 1.398438 -0.4375 1.234375 -0.4375 C 0.910156 -0.40625 0.6875 -0.441406 0.5625 -0.546875 C 0.425781 -0.640625 0.351562 -0.796875 0.34375 -1.015625 C 0.3125 -1.242188 0.328125 -1.546875 0.390625 -1.921875 C 0.441406 -2.273438 0.5 -2.738281 0.5625 -3.3125 C 0.570312 -3.320312 0.578125 -3.375 0.578125 -3.46875 L 0.296875 -3.46875 C 0.203125 -3.46875 0.125 -3.5 0.0625 -3.5625 C 0.0078125 -3.613281 -0.0078125 -3.675781 0 -3.75 C 0.0195312 -3.851562 0.0390625 -3.925781 0.0625 -3.96875 C 0.0703125 -4 0.078125 -4.066406 0.078125 -4.171875 C 0.078125 -4.253906 0.101562 -4.320312 0.15625 -4.375 C 0.164062 -4.382812 0.195312 -4.40625 0.25 -4.4375 L 0.359375 -4.484375 C 0.429688 -4.515625 0.488281 -4.53125 0.53125 -4.53125 C 0.5625 -4.53125 0.613281 -4.539062 0.6875 -4.5625 C 0.78125 -4.863281 0.878906 -5.347656 0.984375 -6.015625 C 1.023438 -6.335938 1.070312 -6.6875 1.125 -7.0625 C 1.175781 -7.425781 1.234375 -7.804688 1.296875 -8.203125 C 1.410156 -9.046875 1.539062 -9.867188 1.6875 -10.671875 C 1.757812 -11.078125 1.84375 -11.46875 1.9375 -11.84375 C 2.019531 -12.226562 2.113281 -12.582031 2.21875 -12.90625 C 2.289062 -13.15625 2.460938 -13.28125 2.734375 -13.28125 L 3.5625 -13.28125 C 3.664062 -13.28125 3.757812 -13.28125 3.84375 -13.28125 C 3.925781 -13.269531 4 -13.253906 4.0625 -13.234375 C 4.164062 -13.222656 4.25 -13.191406 4.3125 -13.140625 C 4.375 -13.109375 4.429688 -13.046875 4.484375 -12.953125 C 4.535156 -12.859375 4.585938 -12.726562 4.640625 -12.5625 C 4.691406 -12.40625 4.75 -12.210938 4.8125 -11.984375 C 4.875 -11.753906 4.929688 -11.507812 4.984375 -11.25 C 5.023438 -10.988281 5.070312 -10.710938 5.125 -10.421875 C 5.21875 -9.835938 5.3125 -9.203125 5.40625 -8.515625 C 5.457031 -8.160156 5.507812 -7.8125 5.5625 -7.46875 C 5.59375 -7.125 5.628906 -6.773438 5.671875 -6.421875 C 5.742188 -5.722656 5.816406 -5.046875 5.890625 -4.390625 C 5.929688 -4.066406 5.972656 -3.757812 6.015625 -3.46875 C 6.035156 -3.175781 6.054688 -2.898438 6.078125 -2.640625 C 6.109375 -2.390625 6.132812 -2.164062 6.15625 -1.96875 C 6.164062 -1.757812 6.1875 -1.566406 6.21875 -1.390625 C 6.25 -1.046875 6.265625 -0.851562 6.265625 -0.8125 C 6.285156 -0.582031 6.253906 -0.40625 6.171875 -0.28125 C 6.097656 -0.164062 5.960938 -0.0820312 5.765625 -0.03125 Z M 2.734375 -4.84375 C 2.828125 -4.851562 2.914062 -4.867188 3 -4.890625 C 3.09375 -4.890625 3.1875 -4.894531 3.28125 -4.90625 C 3.46875 -4.914062 3.675781 -4.929688 3.90625 -4.953125 L 3.875 -5.21875 C 3.851562 -5.3125 3.835938 -5.410156 3.828125 -5.515625 C 3.816406 -5.617188 3.800781 -5.738281 3.78125 -5.875 L 3.640625 -6.71875 L 3.515625 -7.5625 C 3.472656 -7.832031 3.4375 -8.0625 3.40625 -8.25 C 3.363281 -8.445312 3.335938 -8.550781 3.328125 -8.5625 C 3.285156 -8.5 3.226562 -8.3125 3.15625 -8 C 3.113281 -7.832031 3.078125 -7.664062 3.046875 -7.5 C 3.003906 -7.3125 2.972656 -7.109375 2.953125 -6.890625 C 2.921875 -6.679688 2.894531 -6.484375 2.875 -6.296875 C 2.851562 -6.085938 2.828125 -5.882812 2.796875 -5.6875 C 2.753906 -5.3125 2.769531 -5.023438 2.84375 -4.828125 Z M 2.734375 -4.84375 "/></g></g></g><g fill="#ffffff" fill-opacity="1"><g transform="translate(39.625244, 23.282099)"><g><path d="M 2.140625 -1.171875 C 2.003906 -1.171875 1.851562 -1.148438 1.6875 -1.109375 C 1.539062 -1.066406 1.382812 -1.0625 1.21875 -1.09375 C 1.082031 -1.101562 0.945312 -1.160156 0.8125 -1.265625 C 0.6875 -1.347656 0.59375 -1.523438 0.53125 -1.796875 C 0.507812 -1.890625 0.5 -1.976562 0.5 -2.0625 C 0.488281 -2.15625 0.472656 -2.25 0.453125 -2.34375 C 0.410156 -2.53125 0.390625 -2.71875 0.390625 -2.90625 C 0.398438 -3.113281 0.40625 -3.316406 0.40625 -3.515625 C 0.40625 -3.703125 0.394531 -3.894531 0.375 -4.09375 C 0.351562 -4.289062 0.332031 -4.503906 0.3125 -4.734375 C 0.289062 -4.960938 0.269531 -5.203125 0.25 -5.453125 C 0.195312 -5.929688 0.140625 -6.539062 0.078125 -7.28125 C 0.046875 -7.644531 0.0234375 -8.039062 0.015625 -8.46875 C -0.00390625 -8.894531 -0.03125 -9.363281 -0.0625 -9.875 C -0.0703125 -10.050781 -0.078125 -10.207031 -0.078125 -10.34375 L -0.078125 -10.703125 C -0.078125 -10.898438 -0.0546875 -11.070312 -0.015625 -11.21875 C 0.015625 -11.34375 0.0703125 -11.4375 0.15625 -11.5 C 0.238281 -11.5625 0.34375 -11.609375 0.46875 -11.640625 C 1.070312 -11.796875 1.664062 -11.84375 2.25 -11.78125 C 2.800781 -11.726562 3.296875 -11.554688 3.734375 -11.265625 C 4.160156 -10.984375 4.519531 -10.585938 4.8125 -10.078125 C 5.082031 -9.597656 5.253906 -8.960938 5.328125 -8.171875 C 5.347656 -8.003906 5.367188 -7.785156 5.390625 -7.515625 C 5.398438 -7.378906 5.410156 -7.238281 5.421875 -7.09375 C 5.421875 -6.957031 5.429688 -6.820312 5.453125 -6.6875 C 5.460938 -6.550781 5.46875 -6.410156 5.46875 -6.265625 L 5.46875 -5.5 C 5.46875 -5.382812 5.460938 -5.285156 5.453125 -5.203125 C 5.429688 -4.859375 5.34375 -4.445312 5.1875 -3.96875 C 5.050781 -3.53125 4.832031 -3.085938 4.53125 -2.640625 C 4.25 -2.242188 3.910156 -1.898438 3.515625 -1.609375 C 3.109375 -1.328125 2.65625 -1.195312 2.15625 -1.21875 Z M 2.359375 -2.296875 C 2.484375 -2.316406 2.648438 -2.472656 2.859375 -2.765625 C 3.078125 -3.085938 3.273438 -3.5 3.453125 -4 C 3.648438 -4.550781 3.796875 -5.175781 3.890625 -5.875 C 3.984375 -6.644531 3.976562 -7.46875 3.875 -8.34375 C 3.769531 -8.957031 3.632812 -9.441406 3.46875 -9.796875 C 3.300781 -10.148438 3.113281 -10.4375 2.90625 -10.65625 C 2.707031 -10.851562 2.503906 -10.988281 2.296875 -11.0625 C 2.085938 -11.132812 1.882812 -11.191406 1.6875 -11.234375 L 1.6875 -10.890625 C 1.6875 -10.765625 1.691406 -10.671875 1.703125 -10.609375 C 1.753906 -9.898438 1.800781 -9.253906 1.84375 -8.671875 C 1.875 -8.085938 1.90625 -7.554688 1.9375 -7.078125 C 1.957031 -6.597656 1.984375 -6.171875 2.015625 -5.796875 C 2.023438 -5.410156 2.039062 -5.066406 2.0625 -4.765625 C 2.09375 -4.460938 2.113281 -4.203125 2.125 -3.984375 C 2.125 -3.753906 2.128906 -3.566406 2.140625 -3.421875 C 2.148438 -3.117188 2.171875 -2.890625 2.203125 -2.734375 C 2.210938 -2.585938 2.226562 -2.492188 2.25 -2.453125 C 2.257812 -2.421875 2.296875 -2.382812 2.359375 -2.34375 Z M 2.359375 -2.296875 "/></g></g></g><g fill="#ffffff" fill-opacity="1"><g transform="translate(49.816972, 23.282099)"><g><path d="M 0.8125 -1.265625 C 0.457031 -1.335938 0.210938 -1.441406 0.078125 -1.578125 C -0.046875 -1.703125 -0.0703125 -1.941406 0 -2.296875 C 0.0703125 -2.609375 0.234375 -3.085938 0.484375 -3.734375 C 0.722656 -4.347656 1.046875 -5.175781 1.453125 -6.21875 C 1.492188 -6.34375 1.539062 -6.46875 1.59375 -6.59375 C 1.632812 -6.71875 1.671875 -6.847656 1.703125 -6.984375 C 1.742188 -7.117188 1.789062 -7.25 1.84375 -7.375 C 1.875 -7.5 1.914062 -7.625 1.96875 -7.75 C 2.03125 -7.925781 2.09375 -8.078125 2.15625 -8.203125 C 2.207031 -8.328125 2.253906 -8.441406 2.296875 -8.546875 C 2.328125 -8.648438 2.363281 -8.742188 2.40625 -8.828125 C 2.4375 -8.898438 2.46875 -8.972656 2.5 -9.046875 C 2.519531 -9.128906 2.550781 -9.210938 2.59375 -9.296875 C 2.625 -9.367188 2.660156 -9.457031 2.703125 -9.5625 C 2.773438 -9.75 2.867188 -10.007812 2.984375 -10.34375 L 2.203125 -10.34375 C 1.960938 -10.34375 1.753906 -10.335938 1.578125 -10.328125 C 1.222656 -10.316406 0.953125 -10.335938 0.765625 -10.390625 C 0.585938 -10.441406 0.488281 -10.550781 0.46875 -10.71875 C 0.445312 -10.894531 0.484375 -11.171875 0.578125 -11.546875 C 0.796875 -11.617188 1.046875 -11.675781 1.328125 -11.71875 C 1.484375 -11.738281 1.640625 -11.757812 1.796875 -11.78125 C 1.953125 -11.78125 2.109375 -11.785156 2.265625 -11.796875 C 2.429688 -11.804688 2.585938 -11.8125 2.734375 -11.8125 L 3.625 -11.8125 C 3.75 -11.8125 3.863281 -11.804688 3.96875 -11.796875 C 4.363281 -11.753906 4.644531 -11.578125 4.8125 -11.265625 C 4.863281 -11.171875 4.898438 -11.078125 4.921875 -10.984375 C 4.929688 -10.890625 4.929688 -10.78125 4.921875 -10.65625 C 4.910156 -10.539062 4.859375 -10.390625 4.765625 -10.203125 C 4.734375 -10.109375 4.691406 -10.015625 4.640625 -9.921875 C 4.578125 -9.816406 4.515625 -9.703125 4.453125 -9.578125 C 4.347656 -9.398438 4.21875 -9.097656 4.0625 -8.671875 C 3.96875 -8.460938 3.882812 -8.238281 3.8125 -8 C 3.726562 -7.757812 3.632812 -7.507812 3.53125 -7.25 C 3.425781 -6.988281 3.332031 -6.722656 3.25 -6.453125 C 3.144531 -6.179688 3.046875 -5.898438 2.953125 -5.609375 C 2.847656 -5.328125 2.753906 -5.0625 2.671875 -4.8125 C 2.578125 -4.539062 2.492188 -4.289062 2.421875 -4.0625 C 2.347656 -3.820312 2.28125 -3.609375 2.21875 -3.421875 C 2.15625 -3.222656 2.09375 -3.046875 2.03125 -2.890625 L 1.875 -2.4375 L 2.5 -2.4375 C 2.632812 -2.4375 2.769531 -2.4375 2.90625 -2.4375 C 3.050781 -2.425781 3.191406 -2.414062 3.328125 -2.40625 C 3.609375 -2.375 3.863281 -2.335938 4.09375 -2.296875 C 4.320312 -2.234375 4.453125 -2.140625 4.484375 -2.015625 C 4.554688 -1.828125 4.53125 -1.675781 4.40625 -1.5625 C 4.269531 -1.4375 4.082031 -1.347656 3.84375 -1.296875 C 3.59375 -1.234375 3.3125 -1.195312 3 -1.1875 C 2.6875 -1.175781 2.378906 -1.175781 2.078125 -1.1875 C 1.785156 -1.195312 1.523438 -1.210938 1.296875 -1.234375 C 1.066406 -1.253906 0.914062 -1.273438 0.84375 -1.296875 Z M 0.8125 -1.265625 "/></g></g></g><g fill="#ffffff" fill-opacity="1"><g transform="translate(59.464386, 23.282099)"><g><path d="M 1.171875 -1.09375 C 0.960938 -1.09375 0.800781 -1.109375 0.6875 -1.140625 C 0.59375 -1.179688 0.515625 -1.238281 0.453125 -1.3125 C 0.390625 -1.382812 0.351562 -1.476562 0.34375 -1.59375 C 0.320312 -1.65625 0.3125 -1.71875 0.3125 -1.78125 L 0.3125 -2.015625 C 0.34375 -2.410156 0.34375 -2.796875 0.3125 -3.171875 C 0.300781 -3.359375 0.296875 -3.550781 0.296875 -3.75 C 0.285156 -3.9375 0.273438 -4.132812 0.265625 -4.34375 C 0.234375 -5.09375 0.210938 -5.710938 0.203125 -6.203125 C 0.179688 -6.691406 0.164062 -7.140625 0.15625 -7.546875 C 0.132812 -7.765625 0.125 -7.984375 0.125 -8.203125 C 0.113281 -8.421875 0.101562 -8.648438 0.09375 -8.890625 C 0.0820312 -9.117188 0.0703125 -9.378906 0.0625 -9.671875 C 0.0390625 -9.960938 0.0195312 -10.28125 0 -10.625 C -0.0078125 -10.726562 -0.015625 -10.832031 -0.015625 -10.9375 L -0.015625 -11.1875 C -0.015625 -11.351562 0.0507812 -11.46875 0.1875 -11.53125 C 0.519531 -11.675781 0.847656 -11.671875 1.171875 -11.515625 C 1.296875 -11.460938 1.390625 -11.28125 1.453125 -10.96875 C 1.472656 -10.820312 1.492188 -10.664062 1.515625 -10.5 C 1.546875 -10.332031 1.570312 -10.160156 1.59375 -9.984375 C 1.625 -9.816406 1.644531 -9.648438 1.65625 -9.484375 C 1.664062 -9.316406 1.675781 -9.160156 1.6875 -9.015625 C 1.695312 -8.722656 1.734375 -8.546875 1.796875 -8.484375 C 1.941406 -8.515625 2.03125 -8.585938 2.0625 -8.703125 C 2.09375 -8.765625 2.117188 -8.816406 2.140625 -8.859375 C 2.160156 -8.898438 2.1875 -8.945312 2.21875 -9 L 2.40625 -9.28125 C 2.476562 -9.394531 2.566406 -9.519531 2.671875 -9.65625 C 2.765625 -9.789062 2.867188 -9.929688 2.984375 -10.078125 C 3.097656 -10.234375 3.21875 -10.382812 3.34375 -10.53125 C 3.582031 -10.832031 3.828125 -11.097656 4.078125 -11.328125 C 4.328125 -11.566406 4.53125 -11.691406 4.6875 -11.703125 C 4.851562 -11.710938 4.988281 -11.710938 5.09375 -11.703125 C 5.175781 -11.671875 5.363281 -11.59375 5.65625 -11.46875 C 5.394531 -11.0625 5.113281 -10.6875 4.8125 -10.34375 C 4.507812 -10.007812 4.226562 -9.65625 3.96875 -9.28125 C 3.84375 -9.101562 3.722656 -8.921875 3.609375 -8.734375 C 3.484375 -8.546875 3.359375 -8.359375 3.234375 -8.171875 C 3.109375 -7.984375 2.988281 -7.796875 2.875 -7.609375 C 2.75 -7.421875 2.617188 -7.226562 2.484375 -7.03125 L 2.984375 -6.515625 C 3.054688 -6.441406 3.140625 -6.359375 3.234375 -6.265625 C 3.304688 -6.179688 3.382812 -6.085938 3.46875 -5.984375 C 3.5625 -5.890625 3.65625 -5.78125 3.75 -5.65625 C 3.851562 -5.519531 3.960938 -5.367188 4.078125 -5.203125 C 4.296875 -4.878906 4.578125 -4.445312 4.921875 -3.90625 C 5.066406 -3.664062 5.195312 -3.457031 5.3125 -3.28125 C 5.425781 -3.09375 5.519531 -2.929688 5.59375 -2.796875 C 5.75 -2.535156 5.863281 -2.328125 5.9375 -2.171875 C 6.007812 -2.023438 6.046875 -1.914062 6.046875 -1.84375 C 6.046875 -1.738281 6.039062 -1.660156 6.03125 -1.609375 C 5.707031 -1.441406 5.4375 -1.359375 5.21875 -1.359375 C 5 -1.359375 4.753906 -1.488281 4.484375 -1.75 C 4.222656 -2.007812 3.90625 -2.421875 3.53125 -2.984375 C 3.34375 -3.273438 3.125 -3.613281 2.875 -4 C 2.625 -4.375 2.34375 -4.800781 2.03125 -5.28125 C 1.894531 -5.21875 1.835938 -5.140625 1.859375 -5.046875 C 1.867188 -4.984375 1.875 -4.90625 1.875 -4.8125 C 1.9375 -4.007812 1.992188 -3.375 2.046875 -2.90625 C 2.097656 -2.4375 2.117188 -2.082031 2.109375 -1.84375 C 2.085938 -1.601562 2.007812 -1.445312 1.875 -1.375 C 1.75 -1.300781 1.523438 -1.273438 1.203125 -1.296875 Z M 1.171875 -1.09375 "/></g></g></g><g fill="#ffffff" fill-opacity="1"><g transform="translate(70.219186, 23.282099)"><g><path d="M 5.078125 -1.03125 C 4.921875 -1.019531 4.742188 -1.035156 4.546875 -1.078125 C 4.378906 -1.109375 4.257812 -1.160156 4.1875 -1.234375 C 4.101562 -1.316406 4.050781 -1.484375 4.03125 -1.734375 C 4.019531 -1.859375 4.015625 -2.015625 4.015625 -2.203125 C 4.003906 -2.367188 4 -2.582031 4 -2.84375 L 4 -3.71875 C 4 -4.039062 3.992188 -4.414062 3.984375 -4.84375 L 3.90625 -5.140625 L 1.921875 -5.140625 C 1.828125 -4.921875 1.78125 -4.660156 1.78125 -4.359375 C 1.78125 -4.066406 1.800781 -3.785156 1.84375 -3.515625 C 1.863281 -3.378906 1.878906 -3.25 1.890625 -3.125 C 1.890625 -2.976562 1.898438 -2.84375 1.921875 -2.71875 C 1.929688 -2.46875 1.910156 -2.265625 1.859375 -2.109375 C 1.796875 -1.929688 1.679688 -1.804688 1.515625 -1.734375 C 1.359375 -1.648438 1.097656 -1.640625 0.734375 -1.703125 C 0.554688 -1.722656 0.429688 -1.773438 0.359375 -1.859375 C 0.265625 -1.941406 0.210938 -2.070312 0.203125 -2.25 C 0.0859375 -3.457031 0.015625 -4.597656 -0.015625 -5.671875 C -0.046875 -6.210938 -0.0625 -6.71875 -0.0625 -7.1875 C -0.0703125 -7.65625 -0.0703125 -8.097656 -0.0625 -8.515625 C -0.0390625 -8.921875 -0.0234375 -9.285156 -0.015625 -9.609375 C -0.015625 -9.941406 -0.00390625 -10.234375 0.015625 -10.484375 C 0.0546875 -10.972656 0.078125 -11.222656 0.078125 -11.234375 C 0.109375 -11.453125 0.203125 -11.617188 0.359375 -11.734375 C 0.492188 -11.835938 0.660156 -11.898438 0.859375 -11.921875 C 1.035156 -11.929688 1.207031 -11.898438 1.375 -11.828125 C 1.53125 -11.753906 1.617188 -11.644531 1.640625 -11.5 C 1.679688 -11.144531 1.71875 -10.773438 1.75 -10.390625 C 1.757812 -10.203125 1.769531 -10.015625 1.78125 -9.828125 C 1.78125 -9.617188 1.78125 -9.410156 1.78125 -9.203125 L 1.78125 -8.5625 C 1.78125 -8.351562 1.785156 -8.132812 1.796875 -7.90625 C 1.816406 -7.675781 1.832031 -7.445312 1.84375 -7.21875 C 1.84375 -6.976562 1.851562 -6.734375 1.875 -6.484375 C 2.21875 -6.429688 2.546875 -6.429688 2.859375 -6.484375 C 3.179688 -6.546875 3.488281 -6.582031 3.78125 -6.59375 C 3.820312 -6.644531 3.859375 -6.796875 3.890625 -7.046875 C 3.898438 -7.171875 3.90625 -7.300781 3.90625 -7.4375 L 3.90625 -7.90625 C 3.90625 -8.082031 3.90625 -8.257812 3.90625 -8.4375 C 3.894531 -8.613281 3.882812 -8.800781 3.875 -9 C 3.851562 -9.195312 3.84375 -9.390625 3.84375 -9.578125 C 3.832031 -9.765625 3.828125 -9.945312 3.828125 -10.125 L 3.828125 -10.625 C 3.828125 -10.789062 3.832031 -10.941406 3.84375 -11.078125 C 3.863281 -11.359375 3.90625 -11.566406 3.96875 -11.703125 C 4.09375 -11.828125 4.234375 -11.898438 4.390625 -11.921875 C 4.546875 -11.929688 4.703125 -11.929688 4.859375 -11.921875 C 5.015625 -11.898438 5.128906 -11.875 5.203125 -11.84375 C 5.285156 -11.8125 5.359375 -11.703125 5.421875 -11.515625 C 5.484375 -11.328125 5.523438 -11.039062 5.546875 -10.65625 C 5.566406 -10.25 5.582031 -9.675781 5.59375 -8.9375 C 5.601562 -8.5625 5.617188 -8.144531 5.640625 -7.6875 C 5.648438 -7.207031 5.664062 -6.679688 5.6875 -6.109375 C 5.71875 -5.523438 5.742188 -4.882812 5.765625 -4.1875 C 5.785156 -3.488281 5.8125 -2.710938 5.84375 -1.859375 C 5.863281 -1.609375 5.828125 -1.425781 5.734375 -1.3125 C 5.628906 -1.1875 5.441406 -1.117188 5.171875 -1.109375 Z M 5.078125 -1.03125 "/></g></g></g><g fill="#ffffff" fill-opacity="1"><g transform="translate(80.748758, 23.282099)"><g><path d="M 1.75 -1.140625 C 1.457031 -1.117188 1.203125 -1.140625 0.984375 -1.203125 C 0.765625 -1.253906 0.625 -1.421875 0.5625 -1.703125 L 0.546875 -1.875 L 0.546875 -1.96875 C 0.546875 -2 0.539062 -2.035156 0.53125 -2.078125 C 0.5 -2.171875 0.476562 -2.320312 0.46875 -2.53125 C 0.457031 -2.632812 0.453125 -2.757812 0.453125 -2.90625 C 0.441406 -3.0625 0.421875 -3.242188 0.390625 -3.453125 C 0.367188 -3.671875 0.351562 -3.910156 0.34375 -4.171875 C 0.3125 -4.429688 0.285156 -4.722656 0.265625 -5.046875 C 0.234375 -5.378906 0.207031 -5.753906 0.1875 -6.171875 C 0.144531 -6.585938 0.109375 -7.050781 0.078125 -7.5625 C 0.015625 -8.175781 -0.0195312 -8.648438 -0.03125 -8.984375 C -0.0507812 -9.140625 -0.0625 -9.285156 -0.0625 -9.421875 C -0.0703125 -9.566406 -0.078125 -9.691406 -0.078125 -9.796875 C -0.078125 -9.910156 -0.0703125 -10.019531 -0.0625 -10.125 C -0.0625 -10.21875 -0.0507812 -10.316406 -0.03125 -10.421875 C -0.0078125 -10.617188 0.0234375 -10.894531 0.078125 -11.25 C 0.109375 -11.519531 0.265625 -11.710938 0.546875 -11.828125 C 0.816406 -11.941406 1.140625 -12 1.515625 -12 C 1.878906 -12 2.265625 -11.960938 2.671875 -11.890625 C 2.867188 -11.847656 3.050781 -11.8125 3.21875 -11.78125 C 3.375 -11.738281 3.519531 -11.691406 3.65625 -11.640625 C 4.445312 -11.390625 4.878906 -10.847656 4.953125 -10.015625 C 4.992188 -9.597656 4.992188 -9.222656 4.953125 -8.890625 C 4.921875 -8.546875 4.828125 -8.207031 4.671875 -7.875 C 4.523438 -7.539062 4.304688 -7.171875 4.015625 -6.765625 C 3.734375 -6.359375 3.378906 -5.890625 2.953125 -5.359375 C 3.597656 -4.597656 4.101562 -4.015625 4.46875 -3.609375 C 4.832031 -3.179688 5.101562 -2.875 5.28125 -2.6875 C 5.476562 -2.457031 5.601562 -2.304688 5.65625 -2.234375 C 5.675781 -2.179688 5.707031 -2.128906 5.75 -2.078125 C 5.78125 -2.015625 5.816406 -1.953125 5.859375 -1.890625 C 5.941406 -1.734375 5.941406 -1.597656 5.859375 -1.484375 C 5.753906 -1.367188 5.609375 -1.300781 5.421875 -1.28125 C 5.265625 -1.269531 5.054688 -1.300781 4.796875 -1.375 C 4.535156 -1.445312 4.328125 -1.597656 4.171875 -1.828125 C 3.953125 -2.085938 3.769531 -2.316406 3.625 -2.515625 C 3.476562 -2.703125 3.351562 -2.859375 3.25 -2.984375 C 3.144531 -3.109375 3.054688 -3.21875 2.984375 -3.3125 C 2.910156 -3.382812 2.851562 -3.445312 2.8125 -3.5 C 2.78125 -3.539062 2.75 -3.578125 2.71875 -3.609375 L 2.546875 -3.78125 C 2.441406 -3.71875 2.390625 -3.65625 2.390625 -3.59375 L 2.390625 -3.40625 C 2.410156 -2.9375 2.425781 -2.566406 2.4375 -2.296875 C 2.445312 -2.003906 2.445312 -1.773438 2.4375 -1.609375 C 2.425781 -1.453125 2.367188 -1.335938 2.265625 -1.265625 C 2.179688 -1.203125 2.035156 -1.15625 1.828125 -1.125 Z M 2.109375 -6.453125 C 2.304688 -6.671875 2.484375 -6.929688 2.640625 -7.234375 C 2.835938 -7.554688 2.984375 -7.875 3.078125 -8.1875 C 3.191406 -8.53125 3.269531 -8.875 3.3125 -9.21875 C 3.34375 -9.570312 3.320312 -9.910156 3.25 -10.234375 C 3.195312 -10.453125 3.125 -10.628906 3.03125 -10.765625 C 2.925781 -10.890625 2.8125 -10.984375 2.6875 -11.046875 C 2.625 -11.066406 2.554688 -11.09375 2.484375 -11.125 C 2.398438 -11.144531 2.316406 -11.164062 2.234375 -11.1875 C 2.148438 -11.21875 2.054688 -11.242188 1.953125 -11.265625 C 1.847656 -11.273438 1.742188 -11.296875 1.640625 -11.328125 C 1.617188 -11.265625 1.609375 -11.207031 1.609375 -11.15625 L 1.609375 -10.859375 C 1.609375 -10.816406 1.617188 -10.769531 1.640625 -10.71875 C 1.640625 -10.65625 1.644531 -10.585938 1.65625 -10.515625 C 1.664062 -10.441406 1.675781 -10.347656 1.6875 -10.234375 C 1.6875 -10.117188 1.703125 -9.984375 1.734375 -9.828125 C 1.753906 -9.660156 1.773438 -9.472656 1.796875 -9.265625 C 1.828125 -9.046875 1.851562 -8.800781 1.875 -8.53125 C 1.90625 -8.25 1.9375 -7.941406 1.96875 -7.609375 C 2.007812 -7.253906 2.054688 -6.859375 2.109375 -6.421875 Z M 2.109375 -6.453125 "/></g></g></g><g fill="#ffffff" fill-opacity="1"><g transform="translate(91.372169, 23.282099)"><g><path d="M 1.671875 -1.265625 C 1.429688 -1.222656 1.210938 -1.210938 1.015625 -1.234375 C 0.847656 -1.253906 0.71875 -1.304688 0.625 -1.390625 C 0.519531 -1.472656 0.445312 -1.566406 0.40625 -1.671875 C 0.382812 -1.753906 0.363281 -1.882812 0.34375 -2.0625 C 0.3125 -2.21875 0.289062 -2.484375 0.28125 -2.859375 C 0.257812 -3.234375 0.238281 -3.664062 0.21875 -4.15625 C 0.195312 -4.644531 0.179688 -5.171875 0.171875 -5.734375 C 0.160156 -6.015625 0.15625 -6.296875 0.15625 -6.578125 C 0.132812 -6.847656 0.117188 -7.125 0.109375 -7.40625 C 0.0976562 -7.675781 0.09375 -7.941406 0.09375 -8.203125 C 0.0820312 -8.453125 0.0703125 -8.703125 0.0625 -8.953125 C 0.03125 -9.453125 0.0078125 -9.859375 0 -10.171875 C -0.0195312 -10.492188 -0.0195312 -10.757812 0 -10.96875 C 0.0195312 -11.207031 0.046875 -11.367188 0.078125 -11.453125 C 0.109375 -11.578125 0.164062 -11.664062 0.25 -11.71875 C 0.320312 -11.769531 0.414062 -11.804688 0.53125 -11.828125 C 0.78125 -11.867188 0.96875 -11.882812 1.09375 -11.875 C 1.238281 -11.84375 1.347656 -11.800781 1.421875 -11.75 C 1.503906 -11.6875 1.5625 -11.613281 1.59375 -11.53125 C 1.644531 -11.40625 1.675781 -11.3125 1.6875 -11.25 C 1.71875 -11.082031 1.742188 -10.925781 1.765625 -10.78125 L 1.84375 -10.328125 C 1.863281 -10.179688 1.878906 -10.03125 1.890625 -9.875 C 1.910156 -9.71875 1.925781 -9.554688 1.9375 -9.390625 L 2.109375 -6.296875 L 2.265625 -3.1875 L 2.296875 -3.1875 L 2.296875 -2.296875 C 2.296875 -2.054688 2.273438 -1.859375 2.234375 -1.703125 C 2.191406 -1.554688 2.132812 -1.445312 2.0625 -1.375 C 1.988281 -1.300781 1.867188 -1.253906 1.703125 -1.234375 Z M 1.671875 -1.265625 "/></g></g></g></svg>