<svg xmlns="http://www.w3.org/2000/svg" xmlns:xlink="http://www.w3.org/1999/xlink" width="170" zoomAndPan="magnify" viewBox="0 0 127.5 37.5" height="50" preserveAspectRatio="xMidYMid meet" version="1.0"><defs><g/><clipPath id="7534dcd61a"><path d="M 2.4375 4.292969 L 124.558594 4.292969 L 124.558594 32.417969 L 2.4375 32.417969 Z M 2.4375 4.292969 " clip-rule="nonzero"/></clipPath><clipPath id="47cba43500"><path d="M 110.152344 32.414062 L 16.835938 32.414062 C 8.988281 32.414062 2.628906 26.117188 2.628906 18.355469 C 2.628906 10.585938 8.988281 4.292969 16.835938 4.292969 L 110.152344 4.292969 C 118 4.292969 124.359375 10.585938 124.359375 18.355469 C 124.355469 26.117188 117.996094 32.414062 110.152344 32.414062 Z M 110.152344 32.414062 " clip-rule="nonzero"/></clipPath><linearGradient x1="-0.000000115124" gradientTransform="matrix(0.257583, 0, 0, 0.254986, 2.63012, 4.291306)" y1="55.146999" x2="472.579967" gradientUnits="userSpaceOnUse" y2="55.146999" id="4286e11649"><stop stop-opacity="1" stop-color="rgb(0%, 65.098572%, 31.759644%)" offset="0"/><stop stop-opacity="1" stop-color="rgb(0.215149%, 65.1474%, 31.732178%)" offset="0.00390625"/><stop stop-opacity="1" stop-color="rgb(0.431824%, 65.197754%, 31.704712%)" offset="0.0078125"/><stop stop-opacity="1" stop-color="rgb(0.646973%, 65.246582%, 31.677246%)" offset="0.0117188"/><stop stop-opacity="1" stop-color="rgb(0.863647%, 65.29541%, 31.64978%)" offset="0.015625"/><stop stop-opacity="1" stop-color="rgb(1.078796%, 65.344238%, 31.620789%)" offset="0.0195312"/><stop stop-opacity="1" stop-color="rgb(1.295471%, 65.393066%, 31.593323%)" offset="0.0234375"/><stop stop-opacity="1" stop-color="rgb(1.51062%, 65.441895%, 31.565857%)" offset="0.0273438"/><stop stop-opacity="1" stop-color="rgb(1.727295%, 65.490723%, 31.538391%)" offset="0.03125"/><stop stop-opacity="1" stop-color="rgb(1.942444%, 65.539551%, 31.510925%)" offset="0.0351562"/><stop stop-opacity="1" stop-color="rgb(2.159119%, 65.589905%, 31.483459%)" offset="0.0390625"/><stop stop-opacity="1" stop-color="rgb(2.374268%, 65.638733%, 31.455994%)" offset="0.0429687"/><stop stop-opacity="1" stop-color="rgb(2.590942%, 65.687561%, 31.428528%)" offset="0.046875"/><stop stop-opacity="1" stop-color="rgb(2.806091%, 65.736389%, 31.401062%)" offset="0.0507812"/><stop stop-opacity="1" stop-color="rgb(3.022766%, 65.785217%, 31.373596%)" offset="0.0546875"/><stop stop-opacity="1" stop-color="rgb(3.237915%, 65.834045%, 31.34613%)" offset="0.0585937"/><stop stop-opacity="1" stop-color="rgb(3.45459%, 65.882874%, 31.318665%)" offset="0.0625"/><stop stop-opacity="1" stop-color="rgb(3.669739%, 65.931702%, 31.291199%)" offset="0.0664062"/><stop stop-opacity="1" stop-color="rgb(3.886414%, 65.982056%, 31.263733%)" offset="0.0703125"/><stop stop-opacity="1" stop-color="rgb(4.101562%, 66.030884%, 31.236267%)" offset="0.0742187"/><stop stop-opacity="1" stop-color="rgb(4.318237%, 66.079712%, 31.208801%)" offset="0.078125"/><stop stop-opacity="1" stop-color="rgb(4.534912%, 66.12854%, 31.181335%)" offset="0.0820312"/><stop stop-opacity="1" stop-color="rgb(4.751587%, 66.177368%, 31.15387%)" offset="0.0859375"/><stop stop-opacity="1" stop-color="rgb(4.966736%, 66.226196%, 31.126404%)" offset="0.0898437"/><stop stop-opacity="1" stop-color="rgb(5.183411%, 66.27655%, 31.098938%)" offset="0.09375"/><stop stop-opacity="1" stop-color="rgb(5.39856%, 66.325378%, 31.069946%)" offset="0.0976562"/><stop stop-opacity="1" stop-color="rgb(5.615234%, 66.374207%, 31.04248%)" offset="0.101562"/><stop stop-opacity="1" stop-color="rgb(5.830383%, 66.423035%, 31.015015%)" offset="0.105469"/><stop stop-opacity="1" stop-color="rgb(6.047058%, 66.471863%, 30.987549%)" offset="0.109375"/><stop stop-opacity="1" stop-color="rgb(6.262207%, 66.520691%, 30.960083%)" offset="0.113281"/><stop stop-opacity="1" stop-color="rgb(6.478882%, 66.569519%, 30.932617%)" offset="0.117187"/><stop stop-opacity="1" stop-color="rgb(6.694031%, 66.618347%, 30.905151%)" offset="0.121094"/><stop stop-opacity="1" stop-color="rgb(6.910706%, 66.668701%, 30.877686%)" offset="0.125"/><stop stop-opacity="1" stop-color="rgb(7.125854%, 66.717529%, 30.85022%)" offset="0.128906"/><stop stop-opacity="1" stop-color="rgb(7.342529%, 66.766357%, 30.822754%)" offset="0.132812"/><stop stop-opacity="1" stop-color="rgb(7.557678%, 66.815186%, 30.795288%)" offset="0.136719"/><stop stop-opacity="1" stop-color="rgb(7.774353%, 66.864014%, 30.767822%)" offset="0.140625"/><stop stop-opacity="1" stop-color="rgb(7.989502%, 66.912842%, 30.740356%)" offset="0.144531"/><stop stop-opacity="1" stop-color="rgb(8.206177%, 66.96167%, 30.712891%)" offset="0.148437"/><stop stop-opacity="1" stop-color="rgb(8.421326%, 67.010498%, 30.685425%)" offset="0.152344"/><stop stop-opacity="1" stop-color="rgb(8.638%, 67.060852%, 30.657959%)" offset="0.15625"/><stop stop-opacity="1" stop-color="rgb(8.853149%, 67.10968%, 30.630493%)" offset="0.160156"/><stop stop-opacity="1" stop-color="rgb(9.069824%, 67.158508%, 30.603027%)" offset="0.164062"/><stop stop-opacity="1" stop-color="rgb(9.286499%, 67.207336%, 30.575562%)" offset="0.167969"/><stop stop-opacity="1" stop-color="rgb(9.503174%, 67.256165%, 30.548096%)" offset="0.171875"/><stop stop-opacity="1" stop-color="rgb(9.718323%, 67.304993%, 30.52063%)" offset="0.175781"/><stop stop-opacity="1" stop-color="rgb(9.934998%, 67.353821%, 30.493164%)" offset="0.179688"/><stop stop-opacity="1" stop-color="rgb(10.150146%, 67.402649%, 30.464172%)" offset="0.183594"/><stop stop-opacity="1" stop-color="rgb(10.366821%, 67.453003%, 30.436707%)" offset="0.1875"/><stop stop-opacity="1" stop-color="rgb(10.58197%, 67.501831%, 30.409241%)" offset="0.191406"/><stop stop-opacity="1" stop-color="rgb(10.798645%, 67.550659%, 30.381775%)" offset="0.195312"/><stop stop-opacity="1" stop-color="rgb(11.013794%, 67.599487%, 30.354309%)" offset="0.199219"/><stop stop-opacity="1" stop-color="rgb(11.230469%, 67.648315%, 30.326843%)" offset="0.203125"/><stop stop-opacity="1" stop-color="rgb(11.445618%, 67.697144%, 30.299377%)" offset="0.207031"/><stop stop-opacity="1" stop-color="rgb(11.662292%, 67.745972%, 30.271912%)" offset="0.210938"/><stop stop-opacity="1" stop-color="rgb(11.877441%, 67.7948%, 30.244446%)" offset="0.214844"/><stop stop-opacity="1" stop-color="rgb(12.094116%, 67.845154%, 30.21698%)" offset="0.21875"/><stop stop-opacity="1" stop-color="rgb(12.309265%, 67.893982%, 30.189514%)" offset="0.222656"/><stop stop-opacity="1" stop-color="rgb(12.52594%, 67.94281%, 30.162048%)" offset="0.226562"/><stop stop-opacity="1" stop-color="rgb(12.741089%, 67.991638%, 30.134583%)" offset="0.230469"/><stop stop-opacity="1" stop-color="rgb(12.957764%, 68.040466%, 30.107117%)" offset="0.234375"/><stop stop-opacity="1" stop-color="rgb(13.172913%, 68.089294%, 30.079651%)" offset="0.238281"/><stop stop-opacity="1" stop-color="rgb(13.389587%, 68.138123%, 30.052185%)" offset="0.242187"/><stop stop-opacity="1" stop-color="rgb(13.604736%, 68.186951%, 30.024719%)" offset="0.246094"/><stop stop-opacity="1" stop-color="rgb(13.821411%, 68.237305%, 29.997253%)" offset="0.25"/><stop stop-opacity="1" stop-color="rgb(14.038086%, 68.286133%, 29.969788%)" offset="0.253906"/><stop stop-opacity="1" stop-color="rgb(14.254761%, 68.334961%, 29.942322%)" offset="0.257812"/><stop stop-opacity="1" stop-color="rgb(14.46991%, 68.383789%, 29.91333%)" offset="0.261719"/><stop stop-opacity="1" stop-color="rgb(14.686584%, 68.432617%, 29.885864%)" offset="0.265625"/><stop stop-opacity="1" stop-color="rgb(14.901733%, 68.481445%, 29.858398%)" offset="0.269531"/><stop stop-opacity="1" stop-color="rgb(15.118408%, 68.530273%, 29.830933%)" offset="0.273437"/><stop stop-opacity="1" stop-color="rgb(15.333557%, 68.579102%, 29.803467%)" offset="0.277344"/><stop stop-opacity="1" stop-color="rgb(15.550232%, 68.629456%, 29.776001%)" offset="0.28125"/><stop stop-opacity="1" stop-color="rgb(15.765381%, 68.678284%, 29.748535%)" offset="0.285156"/><stop stop-opacity="1" stop-color="rgb(15.982056%, 68.727112%, 29.721069%)" offset="0.289062"/><stop stop-opacity="1" stop-color="rgb(16.197205%, 68.77594%, 29.693604%)" offset="0.292969"/><stop stop-opacity="1" stop-color="rgb(16.413879%, 68.824768%, 29.666138%)" offset="0.296875"/><stop stop-opacity="1" stop-color="rgb(16.629028%, 68.873596%, 29.638672%)" offset="0.300781"/><stop stop-opacity="1" stop-color="rgb(16.845703%, 68.922424%, 29.611206%)" offset="0.304688"/><stop stop-opacity="1" stop-color="rgb(17.060852%, 68.971252%, 29.58374%)" offset="0.308594"/><stop stop-opacity="1" stop-color="rgb(17.277527%, 69.021606%, 29.556274%)" offset="0.3125"/><stop stop-opacity="1" stop-color="rgb(17.492676%, 69.070435%, 29.528809%)" offset="0.316406"/><stop stop-opacity="1" stop-color="rgb(17.709351%, 69.119263%, 29.501343%)" offset="0.320312"/><stop stop-opacity="1" stop-color="rgb(17.9245%, 69.168091%, 29.473877%)" offset="0.324219"/><stop stop-opacity="1" stop-color="rgb(18.141174%, 69.216919%, 29.446411%)" offset="0.328125"/><stop stop-opacity="1" stop-color="rgb(18.356323%, 69.265747%, 29.418945%)" offset="0.332031"/><stop stop-opacity="1" stop-color="rgb(18.572998%, 69.316101%, 29.391479%)" offset="0.335937"/><stop stop-opacity="1" stop-color="rgb(18.789673%, 69.364929%, 29.362488%)" offset="0.339844"/><stop stop-opacity="1" stop-color="rgb(19.006348%, 69.413757%, 29.335022%)" offset="0.34375"/><stop stop-opacity="1" stop-color="rgb(19.221497%, 69.462585%, 29.307556%)" offset="0.347656"/><stop stop-opacity="1" stop-color="rgb(19.438171%, 69.511414%, 29.28009%)" offset="0.351562"/><stop stop-opacity="1" stop-color="rgb(19.65332%, 69.560242%, 29.252625%)" offset="0.355469"/><stop stop-opacity="1" stop-color="rgb(19.869995%, 69.60907%, 29.225159%)" offset="0.359375"/><stop stop-opacity="1" stop-color="rgb(20.085144%, 69.657898%, 29.197693%)" offset="0.363281"/><stop stop-opacity="1" stop-color="rgb(20.301819%, 69.708252%, 29.170227%)" offset="0.367187"/><stop stop-opacity="1" stop-color="rgb(20.516968%, 69.75708%, 29.142761%)" offset="0.371094"/><stop stop-opacity="1" stop-color="rgb(20.733643%, 69.805908%, 29.115295%)" offset="0.375"/><stop stop-opacity="1" stop-color="rgb(20.948792%, 69.854736%, 29.08783%)" offset="0.378906"/><stop stop-opacity="1" stop-color="rgb(21.165466%, 69.903564%, 29.060364%)" offset="0.382812"/><stop stop-opacity="1" stop-color="rgb(21.380615%, 69.952393%, 29.032898%)" offset="0.386719"/><stop stop-opacity="1" stop-color="rgb(21.59729%, 70.001221%, 29.005432%)" offset="0.390625"/><stop stop-opacity="1" stop-color="rgb(21.812439%, 70.050049%, 28.977966%)" offset="0.394531"/><stop stop-opacity="1" stop-color="rgb(22.029114%, 70.100403%, 28.9505%)" offset="0.398437"/><stop stop-opacity="1" stop-color="rgb(22.244263%, 70.149231%, 28.923035%)" offset="0.402344"/><stop stop-opacity="1" stop-color="rgb(22.460938%, 70.198059%, 28.895569%)" offset="0.40625"/><stop stop-opacity="1" stop-color="rgb(22.676086%, 70.246887%, 28.868103%)" offset="0.410156"/><stop stop-opacity="1" stop-color="rgb(22.892761%, 70.295715%, 28.840637%)" offset="0.414062"/><stop stop-opacity="1" stop-color="rgb(23.10791%, 70.344543%, 28.813171%)" offset="0.417969"/><stop stop-opacity="1" stop-color="rgb(23.324585%, 70.393372%, 28.785706%)" offset="0.421875"/><stop stop-opacity="1" stop-color="rgb(23.54126%, 70.4422%, 28.756714%)" offset="0.425781"/><stop stop-opacity="1" stop-color="rgb(23.757935%, 70.492554%, 28.729248%)" offset="0.429687"/><stop stop-opacity="1" stop-color="rgb(23.973083%, 70.541382%, 28.701782%)" offset="0.433594"/><stop stop-opacity="1" stop-color="rgb(24.189758%, 70.59021%, 28.674316%)" offset="0.4375"/><stop stop-opacity="1" stop-color="rgb(24.404907%, 70.639038%, 28.646851%)" offset="0.441406"/><stop stop-opacity="1" stop-color="rgb(24.621582%, 70.687866%, 28.619385%)" offset="0.445312"/><stop stop-opacity="1" stop-color="rgb(24.836731%, 70.736694%, 28.591919%)" offset="0.449219"/><stop stop-opacity="1" stop-color="rgb(25.053406%, 70.785522%, 28.564453%)" offset="0.453125"/><stop stop-opacity="1" stop-color="rgb(25.268555%, 70.834351%, 28.536987%)" offset="0.457031"/><stop stop-opacity="1" stop-color="rgb(25.485229%, 70.884705%, 28.509521%)" offset="0.460937"/><stop stop-opacity="1" stop-color="rgb(25.700378%, 70.933533%, 28.482056%)" offset="0.464844"/><stop stop-opacity="1" stop-color="rgb(25.917053%, 70.982361%, 28.45459%)" offset="0.46875"/><stop stop-opacity="1" stop-color="rgb(26.132202%, 71.031189%, 28.427124%)" offset="0.472656"/><stop stop-opacity="1" stop-color="rgb(26.348877%, 71.080017%, 28.399658%)" offset="0.476562"/><stop stop-opacity="1" stop-color="rgb(26.564026%, 71.128845%, 28.372192%)" offset="0.480469"/><stop stop-opacity="1" stop-color="rgb(26.780701%, 71.177673%, 28.344727%)" offset="0.484375"/><stop stop-opacity="1" stop-color="rgb(26.99585%, 71.226501%, 28.317261%)" offset="0.488281"/><stop stop-opacity="1" stop-color="rgb(27.212524%, 71.276855%, 28.289795%)" offset="0.492188"/><stop stop-opacity="1" stop-color="rgb(27.427673%, 71.325684%, 28.262329%)" offset="0.496094"/><stop stop-opacity="1" stop-color="rgb(27.644348%, 71.374512%, 28.234863%)" offset="0.5"/><stop stop-opacity="1" stop-color="rgb(27.859497%, 71.42334%, 28.205872%)" offset="0.503906"/><stop stop-opacity="1" stop-color="rgb(28.076172%, 71.472168%, 28.178406%)" offset="0.507813"/><stop stop-opacity="1" stop-color="rgb(28.292847%, 71.520996%, 28.15094%)" offset="0.511719"/><stop stop-opacity="1" stop-color="rgb(28.509521%, 71.569824%, 28.123474%)" offset="0.515625"/><stop stop-opacity="1" stop-color="rgb(28.72467%, 71.618652%, 28.096008%)" offset="0.519531"/><stop stop-opacity="1" stop-color="rgb(28.941345%, 71.669006%, 28.068542%)" offset="0.523438"/><stop stop-opacity="1" stop-color="rgb(29.156494%, 71.717834%, 28.041077%)" offset="0.527344"/><stop stop-opacity="1" stop-color="rgb(29.373169%, 71.766663%, 28.013611%)" offset="0.53125"/><stop stop-opacity="1" stop-color="rgb(29.588318%, 71.815491%, 27.986145%)" offset="0.535156"/><stop stop-opacity="1" stop-color="rgb(29.804993%, 71.864319%, 27.958679%)" offset="0.539062"/><stop stop-opacity="1" stop-color="rgb(30.020142%, 71.913147%, 27.931213%)" offset="0.542969"/><stop stop-opacity="1" stop-color="rgb(30.236816%, 71.961975%, 27.903748%)" offset="0.546875"/><stop stop-opacity="1" stop-color="rgb(30.451965%, 72.010803%, 27.876282%)" offset="0.550781"/><stop stop-opacity="1" stop-color="rgb(30.66864%, 72.061157%, 27.848816%)" offset="0.554688"/><stop stop-opacity="1" stop-color="rgb(30.883789%, 72.109985%, 27.82135%)" offset="0.558594"/><stop stop-opacity="1" stop-color="rgb(31.100464%, 72.158813%, 27.793884%)" offset="0.5625"/><stop stop-opacity="1" stop-color="rgb(31.315613%, 72.207642%, 27.766418%)" offset="0.566406"/><stop stop-opacity="1" stop-color="rgb(31.532288%, 72.25647%, 27.738953%)" offset="0.570312"/><stop stop-opacity="1" stop-color="rgb(31.747437%, 72.305298%, 27.711487%)" offset="0.574219"/><stop stop-opacity="1" stop-color="rgb(31.964111%, 72.355652%, 27.684021%)" offset="0.578125"/><stop stop-opacity="1" stop-color="rgb(32.17926%, 72.40448%, 27.655029%)" offset="0.582031"/><stop stop-opacity="1" stop-color="rgb(32.395935%, 72.453308%, 27.627563%)" offset="0.585938"/><stop stop-opacity="1" stop-color="rgb(32.611084%, 72.502136%, 27.600098%)" offset="0.589844"/><stop stop-opacity="1" stop-color="rgb(32.827759%, 72.550964%, 27.572632%)" offset="0.59375"/><stop stop-opacity="1" stop-color="rgb(33.044434%, 72.599792%, 27.545166%)" offset="0.597656"/><stop stop-opacity="1" stop-color="rgb(33.261108%, 72.648621%, 27.5177%)" offset="0.601563"/><stop stop-opacity="1" stop-color="rgb(33.476257%, 72.697449%, 27.490234%)" offset="0.605469"/><stop stop-opacity="1" stop-color="rgb(33.692932%, 72.747803%, 27.462769%)" offset="0.609375"/><stop stop-opacity="1" stop-color="rgb(33.908081%, 72.796631%, 27.435303%)" offset="0.613281"/><stop stop-opacity="1" stop-color="rgb(34.124756%, 72.845459%, 27.407837%)" offset="0.617188"/><stop stop-opacity="1" stop-color="rgb(34.339905%, 72.894287%, 27.380371%)" offset="0.621094"/><stop stop-opacity="1" stop-color="rgb(34.55658%, 72.943115%, 27.352905%)" offset="0.625"/><stop stop-opacity="1" stop-color="rgb(34.771729%, 72.991943%, 27.325439%)" offset="0.628906"/><stop stop-opacity="1" stop-color="rgb(34.988403%, 73.040771%, 27.297974%)" offset="0.632812"/><stop stop-opacity="1" stop-color="rgb(35.203552%, 73.0896%, 27.270508%)" offset="0.636719"/><stop stop-opacity="1" stop-color="rgb(35.420227%, 73.139954%, 27.243042%)" offset="0.640625"/><stop stop-opacity="1" stop-color="rgb(35.635376%, 73.188782%, 27.215576%)" offset="0.644531"/><stop stop-opacity="1" stop-color="rgb(35.852051%, 73.23761%, 27.18811%)" offset="0.648437"/><stop stop-opacity="1" stop-color="rgb(36.0672%, 73.286438%, 27.160645%)" offset="0.652344"/><stop stop-opacity="1" stop-color="rgb(36.283875%, 73.335266%, 27.133179%)" offset="0.65625"/><stop stop-opacity="1" stop-color="rgb(36.499023%, 73.384094%, 27.104187%)" offset="0.660156"/><stop stop-opacity="1" stop-color="rgb(36.715698%, 73.432922%, 27.076721%)" offset="0.664063"/><stop stop-opacity="1" stop-color="rgb(36.930847%, 73.48175%, 27.049255%)" offset="0.667969"/><stop stop-opacity="1" stop-color="rgb(37.147522%, 73.532104%, 27.02179%)" offset="0.671875"/><stop stop-opacity="1" stop-color="rgb(37.364197%, 73.580933%, 26.994324%)" offset="0.675781"/><stop stop-opacity="1" stop-color="rgb(37.580872%, 73.629761%, 26.966858%)" offset="0.679688"/><stop stop-opacity="1" stop-color="rgb(37.796021%, 73.678589%, 26.939392%)" offset="0.683594"/><stop stop-opacity="1" stop-color="rgb(38.012695%, 73.727417%, 26.911926%)" offset="0.6875"/><stop stop-opacity="1" stop-color="rgb(38.227844%, 73.776245%, 26.88446%)" offset="0.691406"/><stop stop-opacity="1" stop-color="rgb(38.444519%, 73.825073%, 26.856995%)" offset="0.695312"/><stop stop-opacity="1" stop-color="rgb(38.659668%, 73.873901%, 26.829529%)" offset="0.699219"/><stop stop-opacity="1" stop-color="rgb(38.876343%, 73.924255%, 26.802063%)" offset="0.703125"/><stop stop-opacity="1" stop-color="rgb(39.091492%, 73.973083%, 26.774597%)" offset="0.707031"/><stop stop-opacity="1" stop-color="rgb(39.308167%, 74.021912%, 26.747131%)" offset="0.710937"/><stop stop-opacity="1" stop-color="rgb(39.523315%, 74.07074%, 26.719666%)" offset="0.714844"/><stop stop-opacity="1" stop-color="rgb(39.73999%, 74.119568%, 26.6922%)" offset="0.71875"/><stop stop-opacity="1" stop-color="rgb(39.955139%, 74.168396%, 26.664734%)" offset="0.722656"/><stop stop-opacity="1" stop-color="rgb(40.171814%, 74.217224%, 26.637268%)" offset="0.726562"/><stop stop-opacity="1" stop-color="rgb(40.386963%, 74.266052%, 26.609802%)" offset="0.730469"/><stop stop-opacity="1" stop-color="rgb(40.603638%, 74.316406%, 26.582336%)" offset="0.734375"/><stop stop-opacity="1" stop-color="rgb(40.818787%, 74.365234%, 26.554871%)" offset="0.738281"/><stop stop-opacity="1" stop-color="rgb(41.035461%, 74.414062%, 26.527405%)" offset="0.742188"/><stop stop-opacity="1" stop-color="rgb(41.25061%, 74.462891%, 26.498413%)" offset="0.746094"/><stop stop-opacity="1" stop-color="rgb(41.467285%, 74.511719%, 26.470947%)" offset="0.75"/><stop stop-opacity="1" stop-color="rgb(41.682434%, 74.560547%, 26.443481%)" offset="0.753906"/><stop stop-opacity="1" stop-color="rgb(41.899109%, 74.609375%, 26.416016%)" offset="0.757812"/><stop stop-opacity="1" stop-color="rgb(42.115784%, 74.658203%, 26.38855%)" offset="0.761719"/><stop stop-opacity="1" stop-color="rgb(42.332458%, 74.708557%, 26.361084%)" offset="0.765625"/><stop stop-opacity="1" stop-color="rgb(42.547607%, 74.757385%, 26.333618%)" offset="0.769531"/><stop stop-opacity="1" stop-color="rgb(42.764282%, 74.806213%, 26.306152%)" offset="0.773437"/><stop stop-opacity="1" stop-color="rgb(42.979431%, 74.855042%, 26.278687%)" offset="0.777344"/><stop stop-opacity="1" stop-color="rgb(43.196106%, 74.90387%, 26.251221%)" offset="0.78125"/><stop stop-opacity="1" stop-color="rgb(43.411255%, 74.952698%, 26.223755%)" offset="0.785156"/><stop stop-opacity="1" stop-color="rgb(43.62793%, 75.001526%, 26.196289%)" offset="0.789062"/><stop stop-opacity="1" stop-color="rgb(43.843079%, 75.050354%, 26.168823%)" offset="0.792969"/><stop stop-opacity="1" stop-color="rgb(44.059753%, 75.100708%, 26.141357%)" offset="0.796875"/><stop stop-opacity="1" stop-color="rgb(44.274902%, 75.149536%, 26.113892%)" offset="0.800781"/><stop stop-opacity="1" stop-color="rgb(44.491577%, 75.198364%, 26.086426%)" offset="0.804687"/><stop stop-opacity="1" stop-color="rgb(44.706726%, 75.247192%, 26.05896%)" offset="0.808594"/><stop stop-opacity="1" stop-color="rgb(44.923401%, 75.296021%, 26.031494%)" offset="0.8125"/><stop stop-opacity="1" stop-color="rgb(45.13855%, 75.344849%, 26.004028%)" offset="0.816406"/><stop stop-opacity="1" stop-color="rgb(45.355225%, 75.393677%, 25.976562%)" offset="0.820312"/><stop stop-opacity="1" stop-color="rgb(45.570374%, 75.442505%, 25.947571%)" offset="0.824219"/><stop stop-opacity="1" stop-color="rgb(45.787048%, 75.492859%, 25.920105%)" offset="0.828125"/><stop stop-opacity="1" stop-color="rgb(46.002197%, 75.541687%, 25.892639%)" offset="0.832031"/><stop stop-opacity="1" stop-color="rgb(46.218872%, 75.590515%, 25.865173%)" offset="0.835938"/><stop stop-opacity="1" stop-color="rgb(46.434021%, 75.639343%, 25.837708%)" offset="0.839844"/><stop stop-opacity="1" stop-color="rgb(46.650696%, 75.688171%, 25.810242%)" offset="0.84375"/><stop stop-opacity="1" stop-color="rgb(46.867371%, 75.737%, 25.782776%)" offset="0.847656"/><stop stop-opacity="1" stop-color="rgb(47.084045%, 75.787354%, 25.75531%)" offset="0.851562"/><stop stop-opacity="1" stop-color="rgb(47.299194%, 75.836182%, 25.727844%)" offset="0.855469"/><stop stop-opacity="1" stop-color="rgb(47.515869%, 75.88501%, 25.700378%)" offset="0.859375"/><stop stop-opacity="1" stop-color="rgb(47.731018%, 75.933838%, 25.672913%)" offset="0.863281"/><stop stop-opacity="1" stop-color="rgb(47.947693%, 75.982666%, 25.645447%)" offset="0.867187"/><stop stop-opacity="1" stop-color="rgb(48.162842%, 76.031494%, 25.617981%)" offset="0.871094"/><stop stop-opacity="1" stop-color="rgb(48.379517%, 76.080322%, 25.590515%)" offset="0.875"/><stop stop-opacity="1" stop-color="rgb(48.594666%, 76.12915%, 25.563049%)" offset="0.878906"/><stop stop-opacity="1" stop-color="rgb(48.81134%, 76.179504%, 25.535583%)" offset="0.882812"/><stop stop-opacity="1" stop-color="rgb(49.026489%, 76.228333%, 25.508118%)" offset="0.886719"/><stop stop-opacity="1" stop-color="rgb(49.243164%, 76.277161%, 25.480652%)" offset="0.890625"/><stop stop-opacity="1" stop-color="rgb(49.458313%, 76.325989%, 25.453186%)" offset="0.894531"/><stop stop-opacity="1" stop-color="rgb(49.674988%, 76.374817%, 25.42572%)" offset="0.898438"/><stop stop-opacity="1" stop-color="rgb(49.890137%, 76.423645%, 25.396729%)" offset="0.902344"/><stop stop-opacity="1" stop-color="rgb(50.106812%, 76.472473%, 25.369263%)" offset="0.90625"/><stop stop-opacity="1" stop-color="rgb(50.32196%, 76.521301%, 25.341797%)" offset="0.910156"/><stop stop-opacity="1" stop-color="rgb(50.538635%, 76.571655%, 25.314331%)" offset="0.914062"/><stop stop-opacity="1" stop-color="rgb(50.753784%, 76.620483%, 25.286865%)" offset="0.917969"/><stop stop-opacity="1" stop-color="rgb(50.970459%, 76.669312%, 25.259399%)" offset="0.921875"/><stop stop-opacity="1" stop-color="rgb(51.185608%, 76.71814%, 25.231934%)" offset="0.925781"/><stop stop-opacity="1" stop-color="rgb(51.402283%, 76.766968%, 25.204468%)" offset="0.929688"/><stop stop-opacity="1" stop-color="rgb(51.618958%, 76.815796%, 25.177002%)" offset="0.933594"/><stop stop-opacity="1" stop-color="rgb(51.835632%, 76.864624%, 25.149536%)" offset="0.9375"/><stop stop-opacity="1" stop-color="rgb(52.050781%, 76.913452%, 25.12207%)" offset="0.941406"/><stop stop-opacity="1" stop-color="rgb(52.267456%, 76.963806%, 25.094604%)" offset="0.945312"/><stop stop-opacity="1" stop-color="rgb(52.482605%, 77.012634%, 25.067139%)" offset="0.949219"/><stop stop-opacity="1" stop-color="rgb(52.69928%, 77.061462%, 25.039673%)" offset="0.953125"/><stop stop-opacity="1" stop-color="rgb(52.914429%, 77.110291%, 25.012207%)" offset="0.957031"/><stop stop-opacity="1" stop-color="rgb(53.131104%, 77.159119%, 24.984741%)" offset="0.960937"/><stop stop-opacity="1" stop-color="rgb(53.346252%, 77.207947%, 24.957275%)" offset="0.964844"/><stop stop-opacity="1" stop-color="rgb(53.562927%, 77.256775%, 24.92981%)" offset="0.96875"/><stop stop-opacity="1" stop-color="rgb(53.778076%, 77.305603%, 24.902344%)" offset="0.972656"/><stop stop-opacity="1" stop-color="rgb(53.994751%, 77.355957%, 24.874878%)" offset="0.976563"/><stop stop-opacity="1" stop-color="rgb(54.2099%, 77.404785%, 24.847412%)" offset="0.980469"/><stop stop-opacity="1" stop-color="rgb(54.426575%, 77.453613%, 24.819946%)" offset="0.984375"/><stop stop-opacity="1" stop-color="rgb(54.641724%, 77.502441%, 24.790955%)" offset="0.988281"/><stop stop-opacity="1" stop-color="rgb(54.858398%, 77.55127%, 24.763489%)" offset="0.992188"/><stop stop-opacity="1" stop-color="rgb(55.073547%, 77.600098%, 24.736023%)" offset="0.996094"/><stop stop-opacity="1" stop-color="rgb(55.288696%, 77.648926%, 24.708557%)" offset="1"/></linearGradient></defs><g clip-path="url(#7534dcd61a)"><g clip-path="url(#47cba43500)"><path fill="url(#4286e11649)" d="M 2.628906 4.292969 L 2.628906 32.414062 L 124.359375 32.414062 L 124.359375 4.292969 Z M 2.628906 4.292969 " fill-rule="nonzero"/></g></g><g fill="#ffffff" fill-opacity="1"><g transform="translate(31.219744, 23.282099)"><g><path d="M 5.078125 -0.015625 C 4.035156 0.046875 3.1875 0.0820312 2.53125 0.09375 C 1.894531 0.101562 1.382812 0 1 -0.21875 C 0.632812 -0.445312 0.382812 -0.835938 0.25 -1.390625 C 0.101562 -1.941406 0.046875 -2.742188 0.078125 -3.796875 C 0.0859375 -5.273438 0.0859375 -6.53125 0.078125 -7.5625 C 0.046875 -8.613281 0.0234375 -9.472656 0.015625 -10.140625 C 0.00390625 -10.804688 -0.0078125 -11.335938 -0.03125 -11.734375 C -0.0507812 -12.109375 -0.0390625 -12.40625 0 -12.625 C 0.0390625 -12.820312 0.0976562 -12.945312 0.171875 -13 C 0.242188 -13.050781 0.351562 -13.085938 0.5 -13.109375 C 0.882812 -13.171875 1.171875 -13.179688 1.359375 -13.140625 C 1.566406 -13.109375 1.726562 -12.976562 1.84375 -12.75 C 1.957031 -12.53125 2.03125 -12.175781 2.0625 -11.6875 C 2.101562 -11.195312 2.125 -10.523438 2.125 -9.671875 L 2.125 -6.484375 C 2.125 -5.203125 2.140625 -3.65625 2.171875 -1.84375 C 2.171875 -1.75 2.179688 -1.664062 2.203125 -1.59375 C 2.203125 -1.507812 2.207031 -1.421875 2.21875 -1.328125 C 2.226562 -1.171875 2.300781 -1.015625 2.4375 -0.859375 C 2.601562 -0.796875 2.753906 -0.765625 2.890625 -0.765625 L 3.140625 -0.765625 C 3.210938 -0.765625 3.300781 -0.769531 3.40625 -0.78125 C 3.59375 -0.800781 3.816406 -0.820312 4.078125 -0.84375 C 4.335938 -0.863281 4.671875 -0.863281 5.078125 -0.84375 C 5.234375 -0.84375 5.363281 -0.804688 5.46875 -0.734375 C 5.5625 -0.660156 5.609375 -0.578125 5.609375 -0.484375 C 5.609375 -0.398438 5.566406 -0.320312 5.484375 -0.25 C 5.398438 -0.1875 5.25 -0.140625 5.03125 -0.109375 Z M 5.078125 -0.015625 "/></g></g></g><g fill="#ffffff" fill-opacity="1"><g transform="translate(41.524079, 23.282099)"><g><path d="M 0.484375 -1.234375 C 0.203125 -1.265625 0.0195312 -1.335938 -0.0625 -1.453125 C -0.132812 -1.554688 -0.140625 -1.753906 -0.078125 -2.046875 C -0.0234375 -2.253906 0.0195312 -2.453125 0.0625 -2.640625 L 0.125 -3.15625 L 0.25 -4.0625 C 0.28125 -4.351562 0.316406 -4.671875 0.359375 -5.015625 C 0.378906 -5.191406 0.40625 -5.378906 0.4375 -5.578125 C 0.445312 -5.773438 0.460938 -5.992188 0.484375 -6.234375 C 0.515625 -6.472656 0.546875 -6.738281 0.578125 -7.03125 C 0.617188 -7.3125 0.65625 -7.625 0.6875 -7.96875 C 0.726562 -8.300781 0.78125 -8.675781 0.84375 -9.09375 C 0.894531 -9.5 0.953125 -9.941406 1.015625 -10.421875 C 1.035156 -10.546875 1.0625 -10.671875 1.09375 -10.796875 C 1.113281 -10.910156 1.140625 -11.023438 1.171875 -11.140625 C 1.234375 -11.359375 1.335938 -11.539062 1.484375 -11.6875 C 1.628906 -11.820312 1.847656 -11.875 2.140625 -11.84375 C 2.429688 -11.820312 2.820312 -11.691406 3.3125 -11.453125 C 3.4375 -11.398438 3.570312 -11.125 3.71875 -10.625 C 3.863281 -10.132812 4.015625 -9.535156 4.171875 -8.828125 C 4.242188 -8.460938 4.316406 -8.09375 4.390625 -7.71875 C 4.460938 -7.332031 4.53125 -6.9375 4.59375 -6.53125 C 4.726562 -5.71875 4.84375 -4.945312 4.9375 -4.21875 C 5.03125 -3.488281 5.109375 -2.867188 5.171875 -2.359375 C 5.191406 -2.109375 5.210938 -1.910156 5.234375 -1.765625 C 5.253906 -1.617188 5.265625 -1.519531 5.265625 -1.46875 C 5.160156 -1.363281 5.023438 -1.285156 4.859375 -1.234375 C 4.679688 -1.171875 4.515625 -1.15625 4.359375 -1.1875 C 4.179688 -1.195312 4.03125 -1.269531 3.90625 -1.40625 C 3.769531 -1.539062 3.679688 -1.734375 3.640625 -1.984375 C 3.617188 -2.109375 3.609375 -2.234375 3.609375 -2.359375 C 3.597656 -2.472656 3.582031 -2.597656 3.5625 -2.734375 C 3.539062 -3.015625 3.488281 -3.289062 3.40625 -3.5625 L 1.890625 -3.5625 C 1.828125 -3.082031 1.789062 -2.691406 1.78125 -2.390625 C 1.769531 -2.097656 1.722656 -1.859375 1.640625 -1.671875 C 1.554688 -1.492188 1.441406 -1.378906 1.296875 -1.328125 C 1.148438 -1.265625 0.925781 -1.25 0.625 -1.28125 Z M 2.03125 -4.734375 C 2.113281 -4.722656 2.203125 -4.71875 2.296875 -4.71875 C 2.378906 -4.695312 2.472656 -4.6875 2.578125 -4.6875 C 2.753906 -4.6875 2.945312 -4.726562 3.15625 -4.8125 C 3.050781 -5.300781 2.976562 -5.691406 2.9375 -5.984375 L 2.875 -6.390625 C 2.851562 -6.492188 2.828125 -6.59375 2.796875 -6.6875 C 2.773438 -6.769531 2.765625 -6.84375 2.765625 -6.90625 C 2.742188 -6.96875 2.726562 -7.023438 2.71875 -7.078125 C 2.695312 -7.203125 2.679688 -7.289062 2.671875 -7.34375 C 2.640625 -7.414062 2.617188 -7.507812 2.609375 -7.625 C 2.597656 -7.6875 2.585938 -7.757812 2.578125 -7.84375 C 2.554688 -7.925781 2.535156 -8.019531 2.515625 -8.125 C 2.390625 -7.90625 2.300781 -7.640625 2.25 -7.328125 C 2.226562 -7.148438 2.203125 -6.976562 2.171875 -6.8125 C 2.148438 -6.65625 2.128906 -6.488281 2.109375 -6.3125 C 2.066406 -5.96875 2.046875 -5.65625 2.046875 -5.375 L 2.046875 -5.015625 C 2.046875 -4.898438 2.050781 -4.8125 2.0625 -4.75 Z M 2.03125 -4.734375 "/></g></g></g><g fill="#ffffff" fill-opacity="1"><g transform="translate(51.884724, 23.282099)"><g><path d="M 0.8125 -1.265625 C 0.457031 -1.335938 0.210938 -1.441406 0.078125 -1.578125 C -0.046875 -1.703125 -0.0703125 -1.941406 0 -2.296875 C 0.0703125 -2.609375 0.234375 -3.085938 0.484375 -3.734375 C 0.722656 -4.347656 1.046875 -5.175781 1.453125 -6.21875 C 1.492188 -6.34375 1.539062 -6.46875 1.59375 -6.59375 C 1.632812 -6.71875 1.671875 -6.847656 1.703125 -6.984375 C 1.742188 -7.117188 1.789062 -7.25 1.84375 -7.375 C 1.875 -7.5 1.914062 -7.625 1.96875 -7.75 C 2.03125 -7.925781 2.09375 -8.078125 2.15625 -8.203125 C 2.207031 -8.328125 2.253906 -8.441406 2.296875 -8.546875 C 2.328125 -8.648438 2.363281 -8.742188 2.40625 -8.828125 C 2.4375 -8.898438 2.46875 -8.972656 2.5 -9.046875 C 2.519531 -9.128906 2.550781 -9.210938 2.59375 -9.296875 C 2.625 -9.367188 2.660156 -9.457031 2.703125 -9.5625 C 2.773438 -9.75 2.867188 -10.007812 2.984375 -10.34375 L 2.203125 -10.34375 C 1.960938 -10.34375 1.753906 -10.335938 1.578125 -10.328125 C 1.222656 -10.316406 0.953125 -10.335938 0.765625 -10.390625 C 0.585938 -10.441406 0.488281 -10.550781 0.46875 -10.71875 C 0.445312 -10.894531 0.484375 -11.171875 0.578125 -11.546875 C 0.796875 -11.617188 1.046875 -11.675781 1.328125 -11.71875 C 1.484375 -11.738281 1.640625 -11.757812 1.796875 -11.78125 C 1.953125 -11.78125 2.109375 -11.785156 2.265625 -11.796875 C 2.429688 -11.804688 2.585938 -11.8125 2.734375 -11.8125 L 3.625 -11.8125 C 3.75 -11.8125 3.863281 -11.804688 3.96875 -11.796875 C 4.363281 -11.753906 4.644531 -11.578125 4.8125 -11.265625 C 4.863281 -11.171875 4.898438 -11.078125 4.921875 -10.984375 C 4.929688 -10.890625 4.929688 -10.78125 4.921875 -10.65625 C 4.910156 -10.539062 4.859375 -10.390625 4.765625 -10.203125 C 4.734375 -10.109375 4.691406 -10.015625 4.640625 -9.921875 C 4.578125 -9.816406 4.515625 -9.703125 4.453125 -9.578125 C 4.347656 -9.398438 4.21875 -9.097656 4.0625 -8.671875 C 3.96875 -8.460938 3.882812 -8.238281 3.8125 -8 C 3.726562 -7.757812 3.632812 -7.507812 3.53125 -7.25 C 3.425781 -6.988281 3.332031 -6.722656 3.25 -6.453125 C 3.144531 -6.179688 3.046875 -5.898438 2.953125 -5.609375 C 2.847656 -5.328125 2.753906 -5.0625 2.671875 -4.8125 C 2.578125 -4.539062 2.492188 -4.289062 2.421875 -4.0625 C 2.347656 -3.820312 2.28125 -3.609375 2.21875 -3.421875 C 2.15625 -3.222656 2.09375 -3.046875 2.03125 -2.890625 L 1.875 -2.4375 L 2.5 -2.4375 C 2.632812 -2.4375 2.769531 -2.4375 2.90625 -2.4375 C 3.050781 -2.425781 3.191406 -2.414062 3.328125 -2.40625 C 3.609375 -2.375 3.863281 -2.335938 4.09375 -2.296875 C 4.320312 -2.234375 4.453125 -2.140625 4.484375 -2.015625 C 4.554688 -1.828125 4.53125 -1.675781 4.40625 -1.5625 C 4.269531 -1.4375 4.082031 -1.347656 3.84375 -1.296875 C 3.59375 -1.234375 3.3125 -1.195312 3 -1.1875 C 2.6875 -1.175781 2.378906 -1.175781 2.078125 -1.1875 C 1.785156 -1.195312 1.523438 -1.210938 1.296875 -1.234375 C 1.066406 -1.253906 0.914062 -1.273438 0.84375 -1.296875 Z M 0.8125 -1.265625 "/></g></g></g><g fill="#ffffff" fill-opacity="1"><g transform="translate(61.532138, 23.282099)"><g><path d="M 0.875 0.1875 C 0.613281 0.207031 0.40625 0.203125 0.25 0.171875 C 0.0625 0.128906 -0.0390625 -0.0078125 -0.0625 -0.25 L -0.0625 -0.78125 C -0.0625 -0.914062 -0.0507812 -1 -0.03125 -1.03125 C -0.0195312 -1.070312 -0.00390625 -1.140625 0.015625 -1.234375 C 0.0234375 -1.316406 0.046875 -1.453125 0.078125 -1.640625 L 0.125 -2.484375 C 0.144531 -2.847656 0.164062 -3.363281 0.1875 -4.03125 C 0.226562 -5.363281 0.265625 -6.492188 0.296875 -7.421875 C 0.328125 -7.878906 0.351562 -8.3125 0.375 -8.71875 C 0.394531 -9.101562 0.421875 -9.457031 0.453125 -9.78125 C 0.503906 -10.4375 0.578125 -10.984375 0.671875 -11.421875 C 0.765625 -11.828125 0.890625 -12.210938 1.046875 -12.578125 C 1.097656 -12.703125 1.191406 -12.816406 1.328125 -12.921875 C 1.453125 -13.003906 1.601562 -13.078125 1.78125 -13.140625 C 1.945312 -13.191406 2.117188 -13.210938 2.296875 -13.203125 C 2.484375 -13.179688 2.628906 -13.140625 2.734375 -13.078125 C 2.828125 -12.992188 2.9375 -12.851562 3.0625 -12.65625 C 3.1875 -12.4375 3.316406 -12.175781 3.453125 -11.875 C 3.515625 -11.71875 3.578125 -11.566406 3.640625 -11.421875 C 3.703125 -11.253906 3.765625 -11.082031 3.828125 -10.90625 C 3.890625 -10.738281 3.945312 -10.578125 4 -10.421875 C 4.039062 -10.273438 4.070312 -10.128906 4.09375 -9.984375 C 4.09375 -9.960938 4.113281 -9.851562 4.15625 -9.65625 C 4.175781 -9.550781 4.195312 -9.441406 4.21875 -9.328125 C 4.25 -9.222656 4.273438 -9.109375 4.296875 -8.984375 C 4.328125 -8.859375 4.359375 -8.738281 4.390625 -8.625 C 4.429688 -8.5 4.46875 -8.363281 4.5 -8.21875 C 4.582031 -7.96875 4.660156 -7.773438 4.734375 -7.640625 C 4.898438 -7.898438 5.003906 -8.144531 5.046875 -8.375 C 5.097656 -8.613281 5.140625 -8.859375 5.171875 -9.109375 C 5.242188 -9.742188 5.398438 -10.328125 5.640625 -10.859375 C 5.765625 -11.128906 5.890625 -11.40625 6.015625 -11.6875 C 6.117188 -11.957031 6.234375 -12.238281 6.359375 -12.53125 C 6.515625 -12.863281 6.753906 -13.085938 7.078125 -13.203125 C 7.390625 -13.316406 7.726562 -13.304688 8.09375 -13.171875 C 8.257812 -13.117188 8.398438 -12.929688 8.515625 -12.609375 C 8.609375 -12.316406 8.707031 -11.898438 8.8125 -11.359375 C 8.90625 -10.847656 8.976562 -10.28125 9.03125 -9.65625 C 9.0625 -9.332031 9.085938 -9.003906 9.109375 -8.671875 C 9.117188 -8.347656 9.140625 -8.007812 9.171875 -7.65625 C 9.191406 -7.3125 9.207031 -6.96875 9.21875 -6.625 C 9.21875 -6.28125 9.222656 -5.929688 9.234375 -5.578125 C 9.253906 -5.222656 9.269531 -4.882812 9.28125 -4.5625 C 9.28125 -4.238281 9.28125 -3.921875 9.28125 -3.609375 L 9.28125 -0.484375 C 9.28125 -0.398438 9.273438 -0.335938 9.265625 -0.296875 C 9.117188 -0.179688 8.96875 -0.109375 8.8125 -0.078125 C 8.644531 -0.0351562 8.488281 -0.0351562 8.34375 -0.078125 C 8.1875 -0.109375 8.050781 -0.179688 7.9375 -0.296875 C 7.8125 -0.410156 7.742188 -0.554688 7.734375 -0.734375 C 7.710938 -0.847656 7.695312 -1.007812 7.6875 -1.21875 C 7.664062 -1.414062 7.648438 -1.660156 7.640625 -1.953125 C 7.617188 -2.523438 7.601562 -3.203125 7.59375 -3.984375 C 7.570312 -4.367188 7.5625 -4.765625 7.5625 -5.171875 C 7.550781 -5.566406 7.539062 -5.972656 7.53125 -6.390625 C 7.507812 -7.210938 7.488281 -7.984375 7.46875 -8.703125 C 7.457031 -9.054688 7.453125 -9.390625 7.453125 -9.703125 C 7.441406 -10.003906 7.425781 -10.28125 7.40625 -10.53125 C 7.363281 -11.050781 7.316406 -11.351562 7.265625 -11.4375 C 7.210938 -11.363281 7.175781 -11.3125 7.15625 -11.28125 C 7.113281 -11.25 7.085938 -11.207031 7.078125 -11.15625 C 6.992188 -10.851562 6.925781 -10.578125 6.875 -10.328125 C 6.8125 -10.078125 6.757812 -9.847656 6.71875 -9.640625 C 6.6875 -9.421875 6.648438 -9.21875 6.609375 -9.03125 C 6.566406 -8.832031 6.523438 -8.640625 6.484375 -8.453125 C 6.390625 -8.097656 6.273438 -7.71875 6.140625 -7.3125 C 6.078125 -7.101562 6.003906 -6.882812 5.921875 -6.65625 C 5.816406 -6.394531 5.695312 -6.125 5.5625 -5.84375 C 5.425781 -5.53125 5.269531 -5.3125 5.09375 -5.1875 C 4.90625 -5.0625 4.65625 -5.003906 4.34375 -5.015625 C 3.988281 -5.035156 3.769531 -5.1875 3.6875 -5.46875 C 3.632812 -5.59375 3.585938 -5.71875 3.546875 -5.84375 C 3.492188 -5.96875 3.453125 -6.097656 3.421875 -6.234375 C 3.328125 -6.523438 3.273438 -6.796875 3.265625 -7.046875 L 3.234375 -7.375 C 3.203125 -7.5 3.171875 -7.648438 3.140625 -7.828125 C 3.097656 -8.003906 3.0625 -8.191406 3.03125 -8.390625 C 2.988281 -8.597656 2.941406 -8.804688 2.890625 -9.015625 C 2.804688 -9.429688 2.691406 -9.867188 2.546875 -10.328125 C 2.421875 -10.753906 2.289062 -11.15625 2.15625 -11.53125 C 2.0625 -11.351562 1.988281 -11.070312 1.9375 -10.6875 C 1.90625 -10.488281 1.882812 -10.273438 1.875 -10.046875 C 1.851562 -9.816406 1.828125 -9.578125 1.796875 -9.328125 C 1.773438 -9.078125 1.765625 -8.820312 1.765625 -8.5625 C 1.753906 -8.300781 1.742188 -8.023438 1.734375 -7.734375 C 1.710938 -7.453125 1.703125 -7.175781 1.703125 -6.90625 L 1.703125 -4.203125 C 1.703125 -4.054688 1.695312 -3.929688 1.6875 -3.828125 C 1.65625 -3.253906 1.597656 -2.6875 1.515625 -2.125 C 1.484375 -1.832031 1.453125 -1.550781 1.421875 -1.28125 C 1.390625 -1 1.359375 -0.71875 1.328125 -0.4375 C 1.316406 -0.1875 1.191406 -0.046875 0.953125 -0.015625 Z M 0.875 0.1875 "/></g></g></g><g fill="#ffffff" fill-opacity="1"><g transform="translate(75.571564, 23.282099)"><g><path d="M 0.484375 -1.234375 C 0.203125 -1.265625 0.0195312 -1.335938 -0.0625 -1.453125 C -0.132812 -1.554688 -0.140625 -1.753906 -0.078125 -2.046875 C -0.0234375 -2.253906 0.0195312 -2.453125 0.0625 -2.640625 L 0.125 -3.15625 L 0.25 -4.0625 C 0.28125 -4.351562 0.316406 -4.671875 0.359375 -5.015625 C 0.378906 -5.191406 0.40625 -5.378906 0.4375 -5.578125 C 0.445312 -5.773438 0.460938 -5.992188 0.484375 -6.234375 C 0.515625 -6.472656 0.546875 -6.738281 0.578125 -7.03125 C 0.617188 -7.3125 0.65625 -7.625 0.6875 -7.96875 C 0.726562 -8.300781 0.78125 -8.675781 0.84375 -9.09375 C 0.894531 -9.5 0.953125 -9.941406 1.015625 -10.421875 C 1.035156 -10.546875 1.0625 -10.671875 1.09375 -10.796875 C 1.113281 -10.910156 1.140625 -11.023438 1.171875 -11.140625 C 1.234375 -11.359375 1.335938 -11.539062 1.484375 -11.6875 C 1.628906 -11.820312 1.847656 -11.875 2.140625 -11.84375 C 2.429688 -11.820312 2.820312 -11.691406 3.3125 -11.453125 C 3.4375 -11.398438 3.570312 -11.125 3.71875 -10.625 C 3.863281 -10.132812 4.015625 -9.535156 4.171875 -8.828125 C 4.242188 -8.460938 4.316406 -8.09375 4.390625 -7.71875 C 4.460938 -7.332031 4.53125 -6.9375 4.59375 -6.53125 C 4.726562 -5.71875 4.84375 -4.945312 4.9375 -4.21875 C 5.03125 -3.488281 5.109375 -2.867188 5.171875 -2.359375 C 5.191406 -2.109375 5.210938 -1.910156 5.234375 -1.765625 C 5.253906 -1.617188 5.265625 -1.519531 5.265625 -1.46875 C 5.160156 -1.363281 5.023438 -1.285156 4.859375 -1.234375 C 4.679688 -1.171875 4.515625 -1.15625 4.359375 -1.1875 C 4.179688 -1.195312 4.03125 -1.269531 3.90625 -1.40625 C 3.769531 -1.539062 3.679688 -1.734375 3.640625 -1.984375 C 3.617188 -2.109375 3.609375 -2.234375 3.609375 -2.359375 C 3.597656 -2.472656 3.582031 -2.597656 3.5625 -2.734375 C 3.539062 -3.015625 3.488281 -3.289062 3.40625 -3.5625 L 1.890625 -3.5625 C 1.828125 -3.082031 1.789062 -2.691406 1.78125 -2.390625 C 1.769531 -2.097656 1.722656 -1.859375 1.640625 -1.671875 C 1.554688 -1.492188 1.441406 -1.378906 1.296875 -1.328125 C 1.148438 -1.265625 0.925781 -1.25 0.625 -1.28125 Z M 2.03125 -4.734375 C 2.113281 -4.722656 2.203125 -4.71875 2.296875 -4.71875 C 2.378906 -4.695312 2.472656 -4.6875 2.578125 -4.6875 C 2.753906 -4.6875 2.945312 -4.726562 3.15625 -4.8125 C 3.050781 -5.300781 2.976562 -5.691406 2.9375 -5.984375 L 2.875 -6.390625 C 2.851562 -6.492188 2.828125 -6.59375 2.796875 -6.6875 C 2.773438 -6.769531 2.765625 -6.84375 2.765625 -6.90625 C 2.742188 -6.96875 2.726562 -7.023438 2.71875 -7.078125 C 2.695312 -7.203125 2.679688 -7.289062 2.671875 -7.34375 C 2.640625 -7.414062 2.617188 -7.507812 2.609375 -7.625 C 2.597656 -7.6875 2.585938 -7.757812 2.578125 -7.84375 C 2.554688 -7.925781 2.535156 -8.019531 2.515625 -8.125 C 2.390625 -7.90625 2.300781 -7.640625 2.25 -7.328125 C 2.226562 -7.148438 2.203125 -6.976562 2.171875 -6.8125 C 2.148438 -6.65625 2.128906 -6.488281 2.109375 -6.3125 C 2.066406 -5.96875 2.046875 -5.65625 2.046875 -5.375 L 2.046875 -5.015625 C 2.046875 -4.898438 2.050781 -4.8125 2.0625 -4.75 Z M 2.03125 -4.734375 "/></g></g></g><g fill="#ffffff" fill-opacity="1"><g transform="translate(85.932209, 23.282099)"><g><path d="M 0.75 -1.296875 C 0.550781 -1.335938 0.398438 -1.40625 0.296875 -1.5 C 0.210938 -1.59375 0.15625 -1.753906 0.125 -1.984375 C -0.0625 -3.867188 -0.113281 -5.757812 -0.03125 -7.65625 C -0.0195312 -7.96875 -0.0078125 -8.257812 0 -8.53125 C 0 -8.78125 0 -9.007812 0 -9.21875 L 0 -10.265625 C 0 -10.410156 0.00390625 -10.539062 0.015625 -10.65625 C 0.015625 -10.757812 0.0195312 -10.851562 0.03125 -10.9375 C 0.0507812 -11.082031 0.109375 -11.191406 0.203125 -11.265625 C 0.304688 -11.335938 0.445312 -11.394531 0.625 -11.4375 C 0.71875 -11.457031 0.828125 -11.484375 0.953125 -11.515625 C 1.066406 -11.535156 1.207031 -11.5625 1.375 -11.59375 C 2.113281 -11.726562 2.742188 -11.6875 3.265625 -11.46875 C 3.804688 -11.257812 4.21875 -10.957031 4.5 -10.5625 C 4.800781 -10.144531 4.992188 -9.660156 5.078125 -9.109375 C 5.148438 -8.554688 5.09375 -8 4.90625 -7.4375 C 4.71875 -6.882812 4.394531 -6.351562 3.9375 -5.84375 C 3.488281 -5.332031 2.921875 -4.914062 2.234375 -4.59375 C 2.191406 -4.582031 2.148438 -4.566406 2.109375 -4.546875 C 2.054688 -4.515625 2.007812 -4.492188 1.96875 -4.484375 C 1.96875 -4.140625 1.972656 -3.832031 1.984375 -3.5625 C 1.984375 -3.289062 1.992188 -3.050781 2.015625 -2.84375 C 2.023438 -2.425781 2.023438 -2.117188 2.015625 -1.921875 C 1.984375 -1.691406 1.9375 -1.546875 1.875 -1.484375 C 1.789062 -1.398438 1.664062 -1.347656 1.5 -1.328125 C 1.289062 -1.296875 1.066406 -1.296875 0.828125 -1.328125 Z M 1.890625 -5.671875 C 2.554688 -6.242188 2.96875 -6.898438 3.125 -7.640625 C 3.269531 -8.378906 3.21875 -9.171875 2.96875 -10.015625 C 2.863281 -10.316406 2.742188 -10.535156 2.609375 -10.671875 C 2.441406 -10.828125 2.289062 -10.929688 2.15625 -10.984375 C 2.007812 -11.035156 1.878906 -11.035156 1.765625 -10.984375 C 1.660156 -10.929688 1.617188 -10.832031 1.640625 -10.6875 C 1.679688 -9.925781 1.71875 -9.273438 1.75 -8.734375 C 1.757812 -8.472656 1.769531 -8.234375 1.78125 -8.015625 C 1.78125 -7.804688 1.78125 -7.613281 1.78125 -7.4375 L 1.78125 -6.15625 C 1.78125 -6.070312 1.796875 -5.992188 1.828125 -5.921875 C 1.835938 -5.859375 1.875 -5.800781 1.9375 -5.75 Z M 1.890625 -5.671875 "/></g></g></g></svg>